<?xml version="1.0" encoding="UTF-8"?>
<svg version="1.1" xmlns="http://www.w3.org/2000/svg" width="512" height="512">
<path d="M0 0 C0.66666837 -0.00350607 1.33333675 -0.00701215 2.0202072 -0.01062447 C4.25206055 -0.01992154 6.483652 -0.01501963 8.71551609 -0.01015663 C10.33262948 -0.01389373 11.94974105 -0.01849549 13.56684977 -0.02388728 C18.00921703 -0.03612499 22.45150903 -0.03585591 26.89388931 -0.03349853 C31.68538536 -0.03309056 36.47685722 -0.04412744 41.26834202 -0.05361366 C50.65462498 -0.07022812 60.04088283 -0.07572338 69.42717927 -0.07683842 C77.05522229 -0.07778854 84.68325702 -0.08189703 92.31129742 -0.08823967 C113.93270423 -0.10585213 135.55409118 -0.11507836 157.17550521 -0.11357872 C158.92401139 -0.11345885 158.92401139 -0.11345885 160.70784092 -0.11333656 C162.45847863 -0.11321392 162.45847863 -0.11321392 164.24448276 -0.1130888 C183.16692948 -0.11227557 202.08929665 -0.13142266 221.01172035 -0.1596133 C240.43573294 -0.1883232 259.85970671 -0.20215468 279.28374106 -0.20042574 C290.19110699 -0.19976126 301.09838951 -0.20527932 312.00573635 -0.22678185 C321.29065617 -0.24496857 330.57545474 -0.24936152 339.86038464 -0.235763 C344.59847688 -0.22922109 349.33633635 -0.22916025 354.07440662 -0.2464695 C358.41145093 -0.26215098 362.74807694 -0.25938725 367.08511073 -0.24190123 C368.65436098 -0.23882048 370.22364208 -0.24250408 371.79285597 -0.25362138 C386.46837063 -0.35070944 386.46837063 -0.35070944 392.15925694 4.25726891 C396.55643458 9.92731377 397.30676293 14.20102983 397.2906847 21.18407726 C397.29273733 22.00460245 397.29478997 22.82512765 397.2969048 23.67051724 C397.30259806 26.4437374 397.3011147 29.21690827 397.29969883 31.99013329 C397.30228113 33.98897506 397.30529391 35.98781631 397.30870223 37.98665684 C397.31679129 43.49806099 397.31856286 49.00945213 397.3192997 54.52086151 C397.32114693 60.45758788 397.32869256 66.39430744 397.33543491 72.33102989 C397.34974128 85.99810907 397.35554638 99.66518729 397.36012686 113.33227225 C397.36246179 120.08385112 397.36606431 126.83542913 397.36982224 133.58700733 C397.38265809 156.69174812 397.39337758 179.79648844 397.39682484 202.90123272 C397.39704647 204.35191628 397.39726825 205.80259983 397.39749019 207.25328339 C397.39771083 208.70749826 397.39793131 210.16171313 397.39815164 211.61592799 C397.39859419 214.53340296 397.39904131 217.45087793 397.39949131 220.36835289 C397.3996554 221.45340113 397.3996554 221.45340113 397.3998228 222.56036954 C397.40345439 246.02177352 397.4193781 269.48314663 397.44268167 292.94453879 C397.46726632 317.74094946 397.48099703 342.53734247 397.48219275 367.33376569 C397.48236421 370.05469303 397.48257964 372.77562036 397.48282719 375.4965477 C397.48288296 376.16653164 397.48293872 376.83651559 397.48299618 377.52680207 C397.48414778 388.3180395 397.49517892 399.10924528 397.50971424 409.90047201 C397.52406598 420.7427096 397.52707078 431.5849046 397.51927426 442.42714898 C397.51535719 448.30325121 397.51634883 454.17924677 397.53033161 460.055336 C397.54300712 465.43107146 397.54192916 470.80661938 397.5297409 476.18235435 C397.52777285 478.13054336 397.53091304 480.07874537 397.53958526 482.02691606 C397.55060551 484.66915294 397.54324113 487.31071946 397.53119373 489.95293713 C397.53878893 490.71442504 397.54638412 491.47591296 397.55420947 492.26047626 C397.49323911 498.42818684 395.83353981 502.3114807 391.84675694 506.94476891 C386.92723436 511.17784647 382.83903539 512.63191795 376.37653923 512.63758564 C375.71613436 512.64224556 375.05572949 512.64690548 374.37531236 512.65170661 C372.16460668 512.66364792 369.95451659 512.65426493 367.74380589 512.64494896 C366.14191603 512.6491223 364.54002913 512.65459981 362.93814772 512.66126877 C358.5376695 512.67574274 354.13737826 512.67147253 349.73688972 512.66410196 C344.99030121 512.65937728 340.24375355 512.67187411 335.49717808 512.68211937 C326.19777085 512.69932788 316.89843113 512.70014293 307.59901211 512.69490647 C300.03917329 512.69086647 292.47935443 512.69230631 284.91951656 512.69765472 C283.30607662 512.69877736 283.30607662 512.69877736 281.66004192 512.69992267 C279.47492117 512.70145414 277.28980041 512.70299249 275.10467967 512.70453764 C254.60506107 512.71827072 234.10548061 512.71281987 213.60586288 512.70135242 C194.85747756 512.69142462 176.10919101 512.70435147 157.36082093 512.72828662 C138.10854631 512.75267973 118.85631769 512.76228462 99.60402793 512.75563389 C88.79602608 512.75214145 77.98810014 512.75437513 67.18010998 512.77188492 C57.97691074 512.78660975 48.77384083 512.78723889 39.57064412 512.76981401 C34.87661603 512.76130298 30.18281894 512.75915688 25.48880291 512.77446556 C21.18731589 512.78832007 16.88625758 512.78353972 12.58479532 512.76422632 C11.03297351 512.76046826 9.4811173 512.76338271 7.92932615 512.77383798 C-4.40653646 512.85100685 -15.70686778 511.27528108 -24.84074306 502.25726891 C-34.69915433 490.61363226 -35.28207803 479.5467082 -35.23515224 464.9821682 C-35.240044 463.10616513 -35.24623512 461.23016509 -35.25361013 459.35417014 C-35.26999665 454.20991014 -35.26769432 449.06580352 -35.26223516 443.92152655 C-35.2595634 438.36923701 -35.27409954 432.81698822 -35.28633022 427.26471519 C-35.30738012 416.39123853 -35.31192532 405.5178152 -35.31014234 394.64432057 C-35.3088345 385.80548142 -35.31263999 376.9666589 -35.32006741 368.12782288 C-35.32216661 365.58138921 -35.32426421 363.03495554 -35.32636023 360.48852187 C-35.32740375 359.22107223 -35.32844728 357.95362259 -35.32952243 356.64776538 C-35.34305455 339.48715393 -35.35064947 322.32654867 -35.34619808 305.16593266 C-35.34594015 304.15972568 -35.34594015 304.15972568 -35.34567701 303.13319128 C-35.34478815 299.73345434 -35.34384333 296.33371741 -35.342879 292.93398049 C-35.34259245 291.92122231 -35.34259245 291.92122231 -35.34230011 290.88800436 C-35.34191302 289.52264285 -35.34152269 288.15728134 -35.34112913 286.79191983 C-35.33515988 265.54961212 -35.35059572 244.30741337 -35.38273525 223.06513023 C-35.41883262 199.18683999 -35.43809837 175.3086183 -35.43319654 151.43029243 C-35.43095224 138.79184745 -35.43618953 126.1535105 -35.46108913 113.51508713 C-35.48210684 102.75547518 -35.48568944 91.99603048 -35.46678954 81.23641165 C-35.45763477 75.74830332 -35.45648114 70.26050679 -35.4771452 64.77242279 C-35.49586755 59.74435878 -35.4913372 54.71686167 -35.46859938 49.68881915 C-35.46441686 47.8739464 -35.46860185 46.05903007 -35.48219532 44.24420341 C-35.57295019 31.2376885 -34.31271244 19.9096604 -24.86418056 10.00726891 C-17.57363917 3.7019358 -9.68744781 0.01152006 0 0 Z " fill="#93482B" transform="translate(74.84074306488037,-0.25726890563964844)"/>
<path d="M0 0 C0.76165466 -0.00029205 1.52330933 -0.00058411 2.30804443 -0.00088501 C4.80785801 0.00050047 7.30736785 0.0160245 9.80712891 0.03173828 C11.54733111 0.0354712 13.28753542 0.03831685 15.02774048 0.04031372 C19.59472517 0.04792825 24.16158146 0.06755791 28.72851562 0.08972168 C33.3940253 0.11022718 38.05955585 0.11932548 42.72509766 0.12939453 C51.86968514 0.15080594 61.01417757 0.18491545 70.15869141 0.22705078 C70.15869141 0.55705078 70.15869141 0.88705078 70.15869141 1.22705078 C69.40845703 1.36240234 68.65822266 1.49775391 67.88525391 1.63720703 C58.11798206 3.69153247 50.57019327 7.34373486 44.72119141 15.66455078 C39.35721116 24.60451786 38.04250202 33.16913165 38.02002621 43.52085114 C38.01718399 44.21218486 38.01434177 44.90351858 38.01141343 45.61580181 C38.00312863 47.91937662 38.00180314 50.22290074 38.00047302 52.52648926 C37.99590343 54.19981424 37.99090283 55.8731381 37.98550946 57.54646063 C37.97196419 62.13461917 37.96452048 66.72277033 37.9580828 71.3109436 C37.95006295 76.26245994 37.93637064 81.21396099 37.92337036 86.16546631 C37.90163008 94.74098735 37.88347665 103.31650995 37.86776543 111.89204407 C37.8450445 124.29079884 37.81690475 136.68953666 37.78744615 149.08827704 C37.7397975 169.20483997 37.69652592 189.32140983 37.65600586 209.43798828 C37.61663706 228.97835835 37.57520751 248.51872227 37.53100586 268.05908203 C37.52828159 269.26372646 37.52555732 270.46837088 37.52275049 271.70951968 C37.50907078 277.75291947 37.49535055 283.79631917 37.48161018 289.83971882 C37.36768824 339.96881662 37.26086941 390.09792776 37.15869141 440.22705078 C35.25361816 440.23321411 35.25361816 440.23321411 33.31005859 440.23950195 C28.54598779 440.26146342 23.78272308 440.3159269 19.01904297 440.37963867 C16.96703891 440.40267137 14.91491911 440.41717939 12.86279297 440.42260742 C-2.1241467 440.47003445 -14.42534351 440.93699784 -25.86865234 451.84033203 C-29.44528754 456.1677065 -31.61310986 461.11315204 -33.84130859 466.22705078 C-34.50256076 467.56307765 -35.16825818 468.89692847 -35.84130859 470.22705078 C-35.95575872 414.12315167 -36.04385992 358.01926418 -36.09663524 301.91527127 C-36.10288876 295.291333 -36.10936037 288.66739496 -36.1159668 282.04345703 C-36.11727835 280.72475303 -36.1185899 279.40604902 -36.1199412 278.04738429 C-36.14150756 256.69651617 -36.18111853 235.34572362 -36.22707257 213.994894 C-36.27383406 192.08615983 -36.30160336 170.17746093 -36.31175107 148.2686789 C-36.31861083 134.75032415 -36.34027506 121.2321597 -36.38089093 107.71386352 C-36.40732541 98.44322774 -36.41530794 89.17269032 -36.40881548 79.90201959 C-36.40561375 74.5536987 -36.41051383 69.20571032 -36.43733597 63.85744858 C-36.46173377 58.95672443 -36.46285372 54.05655526 -36.44580307 49.15580514 C-36.44369689 47.38708608 -36.44998399 45.61833186 -36.46572451 43.84968159 C-36.57360515 30.97460804 -35.20853214 19.76966498 -25.86474609 9.97705078 C-18.20566324 3.35297913 -10.13281724 -0.1029415 0 0 Z " fill="#773423" transform="translate(75.84130859375,-0.22705078125)"/>
<path d="M0 0 C2.06507704 0.02512456 4.13018367 0.04793035 6.1953125 0.06835938 C11.21488164 0.11871621 16.23027802 0.21662246 21.25 0.3125 C21.745 20.6075 21.745 20.6075 22.25 41.3125 C25.9834564 42.67089368 25.9834564 42.67089368 28.34057617 41.43212891 C29.06736572 40.97241699 29.79415527 40.51270508 30.54296875 40.0390625 C31.33767578 39.5440625 32.13238281 39.0490625 32.95117188 38.5390625 C33.77166016 38.01054687 34.59214844 37.48203125 35.4375 36.9375 C36.26958984 36.41671875 37.10167969 35.8959375 37.95898438 35.359375 C41.80387164 33.09659796 41.80387164 33.09659796 45.25 30.3125 C51.6814772 29.16730851 55.87799972 32.87498183 60.9375 36.3125 C62.62495724 37.44341474 64.31620474 38.56870049 66.01171875 39.6875 C66.75381592 40.19023437 67.49591309 40.69296875 68.26049805 41.2109375 C70.30840741 42.55469683 70.30840741 42.55469683 73.25 42.3125 C73.58 28.4525 73.91 14.5925 74.25 0.3125 C162.36 0.3125 250.47 0.3125 341.25 0.3125 C341.25 24.0725 341.25 47.8325 341.25 72.3125 C295.0657843 72.40069673 248.88164807 72.47454766 202.69737224 72.51676132 C197.24380465 72.52176409 191.79023724 72.52694139 186.33666992 72.53222656 C185.25097156 72.5332758 184.1652732 72.53432505 183.04667488 72.53540608 C165.47159286 72.55280711 147.89656321 72.58434316 130.32151224 72.62111118 C112.28533447 72.65852897 94.24918412 72.68073763 76.21296912 72.68885398 C65.08536175 72.69434 53.95790245 72.7116617 42.83034066 72.74416587 C35.19778107 72.76532406 27.56529793 72.77169707 19.93271115 72.76650551 C15.5303426 72.76394578 11.12823265 72.76784532 6.72591019 72.7893219 C2.69065886 72.80886346 -1.34416128 72.80972107 -5.37943294 72.79609558 C-6.83454026 72.7944129 -8.28967507 72.79942267 -9.74472872 72.81203273 C-20.99812603 72.90384002 -30.9530774 71.43211657 -39.90234375 64.13671875 C-47.7326761 56.40571408 -51.77478582 47.86152833 -52.1875 36.9375 C-51.87218354 25.18853436 -46.99245566 16.14635653 -38.625 8.125 C-26.65214947 -1.08902837 -14.42141583 -0.30632215 0 0 Z " fill="#E9E3D5" transform="translate(91.75,439.6875)"/>
<path d="M0 0 C22.11 0 44.22 0 67 0 C67 0.33 67 0.66 67 1 C66.24976563 1.13535156 65.49953125 1.27070313 64.7265625 1.41015625 C54.95929066 3.46448169 47.41150186 7.11668408 41.5625 15.4375 C36.19851976 24.37746707 34.88381062 32.94208087 34.8613348 43.29380035 C34.85849258 43.98513408 34.85565036 44.6764678 34.85272202 45.38875103 C34.84443722 47.69232584 34.84311174 49.99584996 34.84178162 52.29943848 C34.83721202 53.97276346 34.83221142 55.64608731 34.82681805 57.31940985 C34.81327278 61.90756839 34.80582907 66.49571955 34.79939139 71.08389282 C34.79137154 76.03540916 34.77767923 80.98691021 34.76467896 85.93841553 C34.74293867 94.51393656 34.72478524 103.08945917 34.70907402 111.66499329 C34.68635309 124.06374806 34.65821334 136.46248588 34.62875474 148.86122626 C34.58110609 168.97778919 34.53783452 189.09435905 34.49731445 209.2109375 C34.45794565 228.75130757 34.4165161 248.29167149 34.37231445 267.83203125 C34.36959018 269.03667568 34.36686591 270.2413201 34.36405908 271.4824689 C34.35037938 277.52586869 34.33665915 283.56926839 34.32291877 289.61266804 C34.20899683 339.74176598 34.10244794 389.87087741 34 440 C22.78 440 11.56 440 0 440 C0 294.8 0 149.6 0 0 Z " fill="#833B25" transform="translate(79,0)"/>
<path d="M0 0 C2.06507704 0.02512456 4.13018367 0.04793035 6.1953125 0.06835938 C11.21428224 0.1230006 16.23180891 0.20904199 21.25 0.3125 C21.3246488 2.06184556 21.37777179 3.81211797 21.421875 5.5625 C21.46973145 7.02429688 21.46973145 7.02429688 21.51855469 8.515625 C21.13913191 12.46714081 19.36351975 14.30778864 16.8515625 17.23046875 C12.18020019 23.30323975 10.53765311 30.94822041 10.87109375 38.48828125 C12.28098976 48.99709381 16.43863178 57.784837 24.8671875 64.3515625 C30.18943043 67.93412492 34.92433052 70.23832971 41.25 71.3125 C41.25 71.6425 41.25 71.9725 41.25 72.3125 C33.09547279 72.40567588 24.94117249 72.47650367 16.78624249 72.51974869 C12.99849672 72.54051684 9.21111837 72.56863353 5.42358398 72.61425781 C1.76011927 72.65810532 -1.90299477 72.68171783 -5.56670189 72.69200897 C-6.95600076 72.69933135 -8.34528307 72.71362787 -9.73443031 72.73542023 C-21.01136331 72.9050977 -30.93636496 71.44574047 -39.90234375 64.13671875 C-47.7326761 56.40571408 -51.77478582 47.86152833 -52.1875 36.9375 C-51.87218354 25.18853436 -46.99245566 16.14635653 -38.625 8.125 C-26.65214947 -1.08902837 -14.42141583 -0.30632215 0 0 Z " fill="#DCD2BF" transform="translate(91.75,439.6875)"/>
<path d="M0 0 C2.36497439 1.86708505 3.66030715 3.32061431 5 6 C5.16052179 9.76780313 5.25426368 13.53016081 5.328125 17.30078125 C6.15862624 21.87336656 7.21088917 23.34257027 11 26 C13.72014127 26.42778794 15.91941133 26.59783358 18.625 26.5625 C30.52632808 26.93176326 37.97009028 30.70413358 47.29956055 37.84887695 C55.67723811 44.18675362 64.59223728 48.23597242 75 50 C75.103125 49.236875 75.20625 48.47375 75.3125 47.6875 C76.07248389 44.71665389 76.49748912 43.72586957 79 42 C81.875 41.0625 81.875 41.0625 85 41 C87.8125 42.5 87.8125 42.5 90 45 C90.8125 48.75 90.8125 48.75 91 52 C92.093125 52.103125 93.18625 52.20625 94.3125 52.3125 C98 53 98 53 99.9375 54.125 C101.6712306 57.18452459 101.42145216 59.56817525 101 63 C98.83811712 66.15967497 97.62445865 66.88068656 93.8515625 67.6015625 C92.91054688 67.73304687 91.96953125 67.86453125 91 68 C91.23485107 68.53439697 91.46970215 69.06879395 91.71166992 69.61938477 C96.96779571 81.59901868 102.14962606 93.61034345 107.24111938 105.66085815 C107.83005355 107.05286403 108.42085256 108.44408239 109.01351929 109.83450317 C109.85021722 111.79894866 110.67989432 113.76621614 111.5078125 115.734375 C111.98879395 116.87100586 112.46977539 118.00763672 112.96533203 119.17871094 C114 122 114 122 114 125 C108.72 125 103.44 125 98 125 C94.56689894 118.36641455 91.62236305 111.58033633 88.75 104.6875 C88.29109375 103.60404297 87.8321875 102.52058594 87.359375 101.40429688 C86.92625 100.36724609 86.493125 99.33019531 86.046875 98.26171875 C85.65338867 97.32287842 85.25990234 96.38403809 84.85449219 95.41674805 C84 93 84 93 84 90 C83.34 90 82.68 90 82 90 C81.89042969 90.68481445 81.78085937 91.36962891 81.66796875 92.07519531 C80.88479536 95.50444138 79.66203423 98.54789792 78.3125 101.796875 C78.04993408 102.43111389 77.78736816 103.06535278 77.5168457 103.71881104 C76.96424994 105.05091169 76.40944136 106.38209634 75.85253906 107.71240234 C74.99779801 109.75526283 74.15072803 111.8011793 73.3046875 113.84765625 C69.14478828 123.85521172 69.14478828 123.85521172 68 125 C65.30345146 125.07319621 62.63308542 125.09242537 59.9375 125.0625 C59.17888672 125.05798828 58.42027344 125.05347656 57.63867188 125.04882812 C55.75908129 125.0370068 53.87953101 125.01907078 52 125 C52.60609556 119.56088973 54.47270836 115.0818809 56.640625 110.12109375 C57.18671417 108.84831322 57.18671417 108.84831322 57.74383545 107.54981995 C58.90633953 104.84298584 60.07765014 102.14008257 61.25 99.4375 C62.77946636 95.8959998 64.30505818 92.35285057 65.828125 88.80859375 C66.19369507 87.95897064 66.55926514 87.10934753 66.93591309 86.23397827 C69.79726518 79.55149977 72.47773828 72.81872306 75 66 C73.783125 65.938125 72.56625 65.87625 71.3125 65.8125 C56.51941549 64.1020496 42.68050485 54.91679078 30.890625 46.34765625 C28.04666479 44.3204532 26.33796954 43.87068363 22.89453125 43.7890625 C22.07533203 43.76070312 21.25613281 43.73234375 20.41210938 43.703125 C18.69876945 43.65163469 16.98520099 43.60719495 15.27148438 43.5703125 C9.18323419 43.34218135 4.00773562 42.65031412 -0.7421875 38.46484375 C-3.83525093 34.29454099 -5.14015685 32.22340801 -5.125 27.0625 C-5.12757813 26.18722656 -5.13015625 25.31195313 -5.1328125 24.41015625 C-5 22 -5 22 -4 19 C-6.31 19.33 -8.62 19.66 -11 20 C-11.1081866 17.41554227 -11.18737237 14.83562648 -11.25 12.25 C-11.28351563 11.52039063 -11.31703125 10.79078125 -11.3515625 10.0390625 C-11.41608132 6.49052724 -11.31108124 4.43010363 -9.203125 1.515625 C-5.98232224 -0.70010456 -3.8153271 -0.54504673 0 0 Z " fill="#F5CC9A" transform="translate(269,58)"/>
<path d="M0 0 C-0.16242188 0.57621094 -0.32484375 1.15242188 -0.4921875 1.74609375 C-1.49508954 6.1974359 -1.44717785 10.65846645 0 15 C-2.81540214 16.40770107 -5.29420467 16.07680051 -8.4375 16.125 C-16.29032048 16.63085653 -20.84307292 19.33187744 -27 24 C-37.24138932 31.30756426 -50.07203821 39 -63 39 C-59.14989961 48.79130962 -55.20754967 58.5399045 -51.12890625 68.23828125 C-50.79068344 69.04387482 -50.45246063 69.84946838 -50.10398865 70.67947388 C-48.38570725 74.7712301 -46.66172145 78.86043889 -44.92944336 82.94628906 C-44.28606848 84.47581596 -43.64291122 86.00543441 -43 87.53515625 C-42.69723648 88.24376297 -42.39447296 88.95236969 -42.08253479 89.68244934 C-40.85291664 92.62110623 -40 94.78016135 -40 98 C-45.28 98 -50.56 98 -56 98 C-59.60079276 90.34831538 -63.0596605 82.65403788 -66.375 74.875 C-66.73271484 74.04572998 -67.09042969 73.21645996 -67.45898438 72.36206055 C-67.78962891 71.58000244 -68.12027344 70.79794434 -68.4609375 69.9921875 C-68.75790527 69.29464355 -69.05487305 68.59709961 -69.36083984 67.87841797 C-70 66 -70 66 -70 63 C-70.66 63 -71.32 63 -72 63 C-72.16435547 64.02722168 -72.16435547 64.02722168 -72.33203125 65.07519531 C-73.11520464 68.50444138 -74.33796577 71.54789792 -75.6875 74.796875 C-75.95006592 75.43111389 -76.21263184 76.06535278 -76.4831543 76.71881104 C-77.03575006 78.05091169 -77.59055864 79.38209634 -78.14746094 80.71240234 C-79.00220199 82.75526283 -79.84927197 84.8011793 -80.6953125 86.84765625 C-84.85521172 96.85521172 -84.85521172 96.85521172 -86 98 C-88.69654854 98.07319621 -91.36691458 98.09242537 -94.0625 98.0625 C-94.82111328 98.05798828 -95.57972656 98.05347656 -96.36132812 98.04882812 C-98.24091871 98.0370068 -100.12046899 98.01907078 -102 98 C-101.3902908 94.4809013 -100.46382673 91.39580643 -99.08227539 88.10546875 C-98.68839127 87.16098877 -98.29450714 86.21650879 -97.88868713 85.2434082 C-97.24962685 83.73073364 -97.24962685 83.73073364 -96.59765625 82.1875 C-96.15989365 81.14102295 -95.72213104 80.0945459 -95.27110291 79.01635742 C-93.87257068 75.67573501 -92.46768625 72.33782821 -91.0625 69 C-90.1200101 66.75278555 -89.17794792 64.50539167 -88.23632812 62.2578125 C-86.90919997 59.09007775 -85.5814571 55.92261869 -84.2502594 52.7565918 C-83.85322311 51.81211182 -83.45618683 50.86763184 -83.04711914 49.89453125 C-82.69927872 49.06800049 -82.35143829 48.24146973 -81.99305725 47.38989258 C-80.97306435 44.93517665 -79.98180042 42.47021129 -79 40 C-79.78375 39.896875 -80.5675 39.79375 -81.375 39.6875 C-84 39 -84 39 -86 36 C-86.4375 33.125 -86.4375 33.125 -86 30 C-83.625 27.125 -83.625 27.125 -81 25 C-80.34 25 -79.68 25 -79 25 C-78.938125 23.9275 -78.87625 22.855 -78.8125 21.75 C-78 18 -78 18 -75.8125 15.5 C-73 14 -73 14 -69.9375 14 C-66.60047669 15.13600794 -65.09617544 16.17822536 -63 19 C-63 20.32 -63 21.64 -63 23 C-50.74689283 19.36758981 -40.62183133 14.57146089 -30.375 6.75 C-20.72134583 -0.34584836 -11.62473398 -0.41849042 0 0 Z " fill="#F5CC9A" transform="translate(251,85)"/>
<path d="M0 0 C0.33 0 0.66 0 1 0 C1.06958022 9.80549922 1.12285201 19.61093948 1.15543652 29.41663551 C1.17107726 33.97006592 1.1922864 38.52332712 1.22631836 43.07666016 C1.25896866 47.47275831 1.27686499 51.86869395 1.28463173 56.26490402 C1.29016507 57.9402052 1.30097039 59.61549772 1.31719017 61.29072952 C1.33904018 63.64144199 1.34196382 65.9914871 1.34057617 68.34228516 C1.351362 69.03136963 1.36214783 69.7204541 1.3732605 70.43041992 C1.33532181 76.38915588 -0.47018351 80.22210516 -4.3125 84.6875 C-14.90305559 93.80030365 -21.81187491 90 -38 90 C-38 66.24 -38 42.48 -38 18 C-30.41 17.67 -22.82 17.34 -15 17 C-5.28027754 12.76064633 -5.28027754 12.76064633 -1 5 C-0.22514168 2.22861403 -0.22514168 2.22861403 0 0 Z " fill="#833B24" transform="translate(471,422)"/>
<path d="M0 0 C1.25060715 -0.00860046 2.50121429 -0.01720093 3.78971863 -0.02606201 C5.17822224 -0.03049707 6.5667263 -0.03479545 7.95523071 -0.03897095 C9.41552424 -0.04687333 10.87581582 -0.05514237 12.33610535 -0.06375122 C17.1331191 -0.08994977 21.9301415 -0.10527402 26.72720337 -0.11953735 C28.37857697 -0.12489742 30.02995052 -0.13027493 31.68132401 -0.13566971 C38.5492623 -0.15729287 45.41719826 -0.17603067 52.28516197 -0.1872921 C62.12940516 -0.20354018 71.97325423 -0.23674488 81.81734884 -0.29369295 C88.73887401 -0.33237044 95.66029366 -0.35192201 102.58192408 -0.35721266 C106.7165015 -0.3608684 110.85065835 -0.37291314 114.98511887 -0.4053154 C118.87420496 -0.43535888 122.76261519 -0.44172164 126.65179253 -0.42993164 C128.07844625 -0.42971061 129.50513101 -0.43804058 130.93167686 -0.45558548 C132.88050769 -0.47824798 134.82964459 -0.46700671 136.77856445 -0.45410156 C137.86883627 -0.45741171 138.95910809 -0.46072186 140.08241844 -0.46413231 C144.01206925 0.36367207 145.52607645 2.07391871 148.01626587 5.15390015 C148.57876587 8.21640015 148.57876587 8.21640015 148.01626587 11.15390015 C146.14916677 13.45665571 144.65978846 14.83213885 142.01626587 16.15390015 C140.06384064 16.25630132 138.10788 16.29340907 136.15278625 16.30107117 C134.90355377 16.30822647 133.65432129 16.31538177 132.36723328 16.32275391 C130.9750979 16.32559429 129.58296227 16.32830601 128.19082642 16.3309021 C126.73068072 16.33716575 125.27053663 16.34381246 123.81039429 16.35081482 C119.83716877 16.36823322 115.8639553 16.37877879 111.89070106 16.38702035 C109.40916023 16.39216858 106.92762316 16.39824439 104.44608498 16.40453148 C96.68425735 16.42358565 88.92243926 16.43781647 81.16059273 16.44614345 C72.19646109 16.45591863 63.23257619 16.48224438 54.2685315 16.52264434 C47.34277818 16.55278841 40.41709565 16.56761068 33.49127799 16.57092446 C29.3534001 16.57327685 25.21578574 16.58226156 21.07797813 16.60738564 C17.18486759 16.6306418 13.29219456 16.63490974 9.39903259 16.62462425 C7.97077798 16.62412818 6.54250202 16.63046974 5.11431313 16.6441803 C3.16318749 16.6618618 1.21187243 16.65241994 -0.73930359 16.64164734 C-2.37665954 16.64522987 -2.37665954 16.64522987 -4.04709339 16.64888477 C-7.72087018 16.02965239 -9.37610595 14.77607129 -11.98373413 12.15390015 C-13.04623413 8.65390015 -13.04623413 8.65390015 -12.98373413 5.15390015 C-9.41537984 0.31113361 -5.70997583 0.02920347 0 0 Z " fill="#AC5B43" transform="translate(197.98373413085938,369.8460998535156)"/>
<path d="M0 0 C1.24219299 -0.00571014 2.48438599 -0.01142029 3.76422119 -0.01730347 C5.14327993 -0.0185488 6.52233878 -0.0196739 7.90139771 -0.02069092 C9.35183844 -0.02531956 10.80227796 -0.03034428 12.25271606 -0.03573608 C16.19489671 -0.04885676 20.13706033 -0.05530426 24.0792594 -0.05974674 C26.54187722 -0.0626777 29.00449039 -0.06678253 31.46710587 -0.07125092 C39.17126789 -0.0849243 46.87541927 -0.09459202 54.57959259 -0.09845281 C63.47461911 -0.10293483 72.36949206 -0.12049001 81.26447189 -0.1494534 C88.13929144 -0.17106238 95.01406775 -0.18115665 101.8889209 -0.18249393 C105.99543353 -0.18354242 110.10180177 -0.18945971 114.20827866 -0.20731354 C118.07098191 -0.22378097 121.93343201 -0.2259563 125.79615784 -0.21717453 C127.2131175 -0.21640347 128.6300907 -0.22075605 130.04701614 -0.23063278 C131.98280019 -0.24333399 133.91868575 -0.2356904 135.85449219 -0.22705078 C136.93738966 -0.22851734 138.02028713 -0.2299839 139.13599968 -0.2314949 C142.47482465 0.19404792 144.35922061 1.15540396 147.05422974 3.14044189 C148.47464794 5.98127831 148.36875246 7.99521467 148.05422974 11.14044189 C146.18713063 13.44319746 144.69775233 14.8186806 142.05422974 16.14044189 C140.11441486 16.24067604 138.17110946 16.27554896 136.22871399 16.28088379 C134.3674865 16.28944901 134.3674865 16.28944901 132.46865845 16.29818726 C131.08596812 16.29943268 129.70327767 16.30055776 128.32058716 16.30157471 C126.87029392 16.30620198 125.4200019 16.31122651 123.9697113 16.31661987 C120.02333935 16.32975545 116.07698442 16.33619118 112.13059402 16.34063053 C109.66580395 16.34355964 107.20101856 16.34766416 104.73623085 16.3521347 C97.02672604 16.36581323 89.31723189 16.37547791 81.60771579 16.3793366 C72.70418918 16.38381715 63.8008161 16.40136339 54.89733618 16.43033719 C48.01829055 16.45194689 41.13928813 16.46204051 34.2602089 16.46337771 C30.15032798 16.46442634 26.04059131 16.47034611 21.93074608 16.48819733 C18.06395228 16.50466559 14.19741136 16.50683968 10.33059502 16.49805832 C8.91202365 16.49728725 7.49343877 16.50163995 6.07490158 16.51151657 C4.13687444 16.52421776 2.19874591 16.5165742 0.26069641 16.50793457 C-0.82349988 16.50940113 -1.90769617 16.51086769 -3.02474689 16.51237869 C-6.39160283 16.08367359 -8.23571401 15.15688415 -10.94577026 13.14044189 C-13.11128142 9.89217515 -13.49733979 8.90950032 -12.94577026 5.14044189 C-9.15191065 0.43082307 -5.81814462 0.01599328 0 0 Z " fill="#AC5B43" transform="translate(197.94577026367188,304.85955810546875)"/>
<path d="M0 0 C1.27866943 -0.00990463 2.55733887 -0.01980927 3.87475586 -0.03001404 C5.28955174 -0.02577603 6.70434669 -0.02121817 8.11914062 -0.01637268 C9.61076367 -0.02207558 11.10238235 -0.02903954 12.59399414 -0.03717041 C16.64354633 -0.05512465 20.69288211 -0.05392938 24.74246216 -0.04822803 C28.12234817 -0.04513983 31.50219238 -0.05122441 34.88207245 -0.05726677 C42.85435964 -0.07131744 50.82653968 -0.06974585 58.79882812 -0.05836487 C67.02640617 -0.04687908 75.25365843 -0.06096569 83.48119354 -0.08776134 C90.54372201 -0.10990246 97.60614809 -0.11655944 104.6687088 -0.11068493 C108.88753562 -0.1073108 113.10615351 -0.10976064 117.32495117 -0.12693596 C121.29117309 -0.14237819 125.25691139 -0.13848033 129.22311401 -0.11963081 C130.67918809 -0.11593751 132.13529779 -0.11907501 133.59133911 -0.1295166 C135.57778339 -0.14267504 137.56435213 -0.12880285 139.55078125 -0.11352539 C140.66279907 -0.11331611 141.77481689 -0.11310682 142.92053223 -0.1128912 C146.4580748 0.50738199 147.63962252 1.54283903 149.77539062 4.38768005 C150.27539062 7.88768005 150.27539062 7.88768005 149.77539062 11.38768005 C147.64078774 14.22914796 146.45594502 15.26690162 142.92332554 15.89383793 C141.81260653 15.89664485 140.70188753 15.89945177 139.55751038 15.90234375 C138.2802861 15.91506821 137.00306183 15.92779266 135.68713379 15.94090271 C134.27392393 15.93472041 132.86071587 15.92811438 131.44750977 15.92112732 C129.95750575 15.92818551 128.4675089 15.9369301 126.9775238 15.94723511 C122.9319821 15.96975115 118.8868312 15.96678426 114.84125066 15.95791364 C111.4639331 15.95280592 108.08668912 15.96009458 104.70937914 15.96738571 C96.74181568 15.98439192 88.77444371 15.98081188 80.80688477 15.96409607 C72.5872057 15.94717429 64.36805767 15.96300814 56.14843661 15.99531895 C49.0909714 16.02201035 42.03367155 16.02929209 34.97616094 16.02080387 C30.76117414 16.01587323 26.54650687 16.01809732 22.33156013 16.03859138 C18.36769668 16.05694164 14.40459726 16.05099874 10.44077492 16.02639198 C8.98673637 16.02138185 7.53263967 16.02487929 6.07864761 16.03754044 C4.09256729 16.05346563 2.10630165 16.03550234 0.12025452 16.01586914 C-0.99084151 16.01528283 -2.10193754 16.01469652 -3.24670315 16.01409245 C-7.220333 15.17822631 -8.74948129 13.54396936 -11.22460938 10.38768005 C-11.28710938 6.76268005 -11.28710938 6.76268005 -10.22460938 3.38768005 C-7.01540119 0.16060348 -4.446617 0.0097164 0 0 Z " fill="#AC5B43" transform="translate(196.224609375,337.61231994628906)"/>
<path d="M0 0 C0.66 0 1.32 0 2 0 C6.62 11.22 11.24 22.44 16 34 C21.28 34.33 26.56 34.66 32 35 C32.66 35.33 33.32 35.66 34 36 C34.35038473 42.54051493 34.06210465 48.46156796 29.59375 53.625 C27.81314453 55.23762382 25.95125281 56.59817656 24 58 C22.95634277 58.77126221 22.95634277 58.77126221 21.89160156 59.55810547 C14.95223085 64.2346379 9.08642228 65.08855969 0.8125 65 C-0.37480713 64.99291016 -1.56211426 64.98582031 -2.78540039 64.97851562 C-12.34811822 64.6179295 -19.7688877 62.34317577 -26.70214844 55.57861328 C-30.10613328 51.43825098 -32.39835442 46.48249627 -32.875 41.125 C-32.95492188 40.38507813 -33.03484375 39.64515625 -33.1171875 38.8828125 C-33 37 -33 37 -31 35 C-28.10032243 34.69324768 -25.28216822 34.48826629 -22.375 34.375 C-21.57320313 34.33632812 -20.77140625 34.29765625 -19.9453125 34.2578125 C-17.96392444 34.16346069 -15.98199355 34.08063785 -14 34 C-12.32725387 29.9616656 -10.654903 25.92316781 -8.98291016 21.88452148 C-8.41465811 20.51208121 -7.84630013 19.13968479 -7.27783203 17.76733398 C-6.45837661 15.78901648 -5.63930861 13.81053894 -4.8203125 11.83203125 C-4.08192139 10.04889526 -4.08192139 10.04889526 -3.32861328 8.22973633 C-2.20267203 5.492677 -1.0928979 2.75038414 0 0 Z " fill="#F0A107" transform="translate(351,148)"/>
<path d="M0 0 C0.66 0 1.32 0 2 0 C6.62 11.22 11.24 22.44 16 34 C21.28 34.33 26.56 34.66 32 35 C32.66 35.33 33.32 35.66 34 36 C34.54478818 42.53745817 34.06652288 47.67220265 30 53 C27.19460696 55.65375018 24.23058355 57.88982101 21 60 C20.0203125 60.7115625 19.040625 61.423125 18.03125 62.15625 C12.71036408 65.12970729 6.75506418 64.76581008 0.8125 64.75 C-1.00254028 64.74625366 -1.00254028 64.74625366 -2.85424805 64.74243164 C-12.37953915 64.48387605 -18.26390051 63.0965181 -25 56 C-25.65742188 55.35675781 -26.31484375 54.71351563 -26.9921875 54.05078125 C-31.17635396 49.6063095 -32.14455114 46.22672091 -32.125 40.3125 C-32.12757813 39.52488281 -32.13015625 38.73726562 -32.1328125 37.92578125 C-32 36 -32 36 -31 35 C-22.585 34.505 -22.585 34.505 -14 34 C-9.38 22.78 -4.76 11.56 0 0 Z " fill="#F0A207" transform="translate(179,148)"/>
<path d="M0 0 C1.50231171 -0.01441132 1.50231171 -0.01441132 3.03497314 -0.02911377 C4.66459991 -0.03548859 4.66459991 -0.03548859 6.32714844 -0.04199219 C7.44208679 -0.04769226 8.55702515 -0.05339233 9.70574951 -0.05926514 C12.06961109 -0.06872538 14.43348591 -0.07525317 16.79736328 -0.07910156 C20.40778787 -0.08879008 24.01763922 -0.11979749 27.62792969 -0.15136719 C29.92349922 -0.15789882 32.21907283 -0.16314866 34.51464844 -0.16699219 C36.13212982 -0.18551239 36.13212982 -0.18551239 37.7822876 -0.20440674 C44.11870422 -0.18565585 48.97545397 0.16362616 53.83105469 4.69628906 C57.66033544 9.70381004 58.83675021 12.82437731 58.18652344 19.16113281 C56.20137533 24.59416974 53.25163627 27.35238319 48.33566284 30.25334167 C45.82007599 31.3159193 43.96431817 31.4212053 41.23779297 31.43579102 C40.25642365 31.44532303 39.27505432 31.45485504 38.26394653 31.4646759 C36.68261429 31.46330879 36.68261429 31.46330879 35.06933594 31.46191406 C33.43446732 31.46834175 33.43446732 31.46834175 31.76657104 31.47489929 C29.46173802 31.4806404 27.15688687 31.48114448 24.85205078 31.47680664 C21.33171527 31.47365091 17.81222356 31.49709478 14.29199219 31.52246094 C12.05110783 31.52473441 9.81022122 31.5254372 7.56933594 31.52441406 C6.5191629 31.53362381 5.46898987 31.54283356 4.38699341 31.55232239 C-1.87231924 31.51284786 -6.62423542 31.07008435 -11.45800781 26.66113281 C-14.96839192 22.15281343 -16.17950418 18.99520156 -16.09472656 13.21972656 C-15.46500911 8.61054469 -12.54227382 5.80316849 -9.18847656 2.84863281 C-5.81628969 0.45260529 -4.08895943 0.03160197 0 0 Z " fill="#545453" transform="translate(244.8134765625,233.8388671875)"/>
<path d="M0 0 C17.49 0 34.98 0 53 0 C53 13.86 53 27.72 53 42 C49 43 49 43 46.89697266 42.01196289 C46.1601123 41.5039917 45.42325195 40.99602051 44.6640625 40.47265625 C43.84679687 39.92802734 43.02953125 39.38339844 42.1875 38.82226562 C40.48629808 37.65398595 38.78577092 36.48472306 37.0859375 35.31445312 C33.71311546 33.06855669 30.90064976 31.21110771 26.93359375 30.28125 C22.47367362 31.37396013 19.15881051 33.81470735 15.4375 36.4375 C6.08398882 42.94676365 6.08398882 42.94676365 2 43 C0 41 0 41 -0.22705078 37.00927734 C-0.22654992 35.28479835 -0.21547582 33.56029868 -0.1953125 31.8359375 C-0.19329834 31.03196533 -0.19128418 30.22799316 -0.18920898 29.3996582 C-0.17873113 26.39138091 -0.15080859 23.38318483 -0.125 20.375 C-0.08375 13.65125 -0.0425 6.9275 0 0 Z " fill="#EF3E3D" transform="translate(113,440)"/>
<path d="M0 0 C2.36497439 1.86708505 3.66030715 3.32061431 5 6 C5.16052179 9.76780313 5.25426368 13.53016081 5.328125 17.30078125 C6.15862624 21.87336656 7.21088917 23.34257027 11 26 C13.72014127 26.42778794 15.91941133 26.59783358 18.625 26.5625 C30.52383384 26.93168588 37.97560182 30.69990659 47.29956055 37.85107422 C55.68427106 44.20173779 64.96889542 47.93966301 75 51 C75 55.95 75 60.9 75 66 C58.55049509 65.1635845 43.89313381 55.7981552 30.890625 46.34765625 C28.04666479 44.3204532 26.33796954 43.87068363 22.89453125 43.7890625 C22.07533203 43.76070312 21.25613281 43.73234375 20.41210938 43.703125 C18.69876945 43.65163469 16.98520099 43.60719495 15.27148438 43.5703125 C9.18323419 43.34218135 4.00773562 42.65031412 -0.7421875 38.46484375 C-3.83525093 34.29454099 -5.14015685 32.22340801 -5.125 27.0625 C-5.12757813 26.18722656 -5.13015625 25.31195313 -5.1328125 24.41015625 C-5 22 -5 22 -4 19 C-6.31 19.33 -8.62 19.66 -11 20 C-11.1081866 17.41554227 -11.18737237 14.83562648 -11.25 12.25 C-11.28351563 11.52039063 -11.31703125 10.79078125 -11.3515625 10.0390625 C-11.41608132 6.49052724 -11.31108124 4.43010363 -9.203125 1.515625 C-5.98232224 -0.70010456 -3.8153271 -0.54504673 0 0 Z " fill="#DBDAD9" transform="translate(269,58)"/>
<path d="M0 0 C4.95 0 9.9 0 15 0 C15 31.35 15 62.7 15 95 C10.05 95 5.1 95 0 95 C0 63.65 0 32.3 0 0 Z " fill="#DCDCDC" transform="translate(258,108)"/>
<path d="M0 0 C0.33 0 0.66 0 1 0 C1.09958538 5.10451702 1.17180331 10.20845677 1.21972656 15.3137207 C1.2397241 17.04689395 1.26693148 18.78000075 1.30175781 20.51293945 C1.70169118 40.93894813 1.70169118 40.93894813 -4.72167969 47.85327148 C-11.41958199 54.27127031 -18.54098224 54.27203845 -27.375 54.125 C-30.88125 54.08375 -34.3875 54.0425 -38 54 C-38 42.12 -38 30.24 -38 18 C-27.125 17.8125 -27.125 17.8125 -23.76220703 17.79223633 C-16.63673583 17.57181535 -10.90525457 16.1305962 -5 12 C-1.99390138 8.51949128 -0.55199369 4.55394798 0 0 Z " fill="#773423" transform="translate(471,422)"/>
<path d="M0 0 C0.33 0 0.66 0 1 0 C1 32.01 1 64.02 1 97 C3.31 97.66 5.62 98.32 8 99 C10.63460707 101.17384619 12.4700679 103.9401358 14 107 C14 113.6 14 120.2 14 127 C-0.19 127 -14.38 127 -29 127 C-29 108 -29 108 -24 100 C-16.54085823 94.3601611 -9.71473429 96 0 96 C0 64.32 0 32.64 0 0 Z " fill="#E9A016" transform="translate(273,107)"/>
<path d="M0 0 C0.69287109 0.00451172 1.38574219 0.00902344 2.09960938 0.01367188 C3.79561068 0.02536844 5.49156703 0.04330076 7.1875 0.0625 C7.02507812 0.63871094 6.86265625 1.21492188 6.6953125 1.80859375 C5.69241046 6.2599359 5.74032215 10.72096645 7.1875 15.0625 C4.37209786 16.47020107 1.89329533 16.13930051 -1.25 16.1875 C-9.10282048 16.69335653 -13.65557292 19.39437744 -19.8125 24.0625 C-30.05388932 31.37006426 -42.88453821 39.0625 -55.8125 39.0625 C-55.8125 34.1125 -55.8125 29.1625 -55.8125 24.0625 C-54.905 23.670625 -53.9975 23.27875 -53.0625 22.875 C-52.41667969 22.59269531 -51.77085937 22.31039062 -51.10546875 22.01953125 C-49.50012956 21.34950041 -47.87519754 20.72541247 -46.23828125 20.13671875 C-38.91740585 17.39014203 -32.88442311 13.63775373 -26.59594727 9.07226562 C-17.84994866 2.75996515 -10.89262858 -0.13550638 0 0 Z " fill="#DBDAD9" transform="translate(243.8125,84.9375)"/>
<path d="M0 0 C3.97976596 2.44291109 6.60064848 5.44348446 8.7109375 9.6640625 C9.08475604 15.27134067 8.89584577 18.83178788 5.7109375 23.6640625 C0.1647281 28.6691783 -3.3502383 28.8959703 -10.5390625 28.9765625 C-11.38597656 29.00556641 -12.23289062 29.03457031 -13.10546875 29.06445312 C-18.69633044 29.12097039 -21.85437561 28.39417297 -26.2890625 24.6640625 C-29.88970162 20.70335947 -29.79815505 16.44593158 -29.6328125 11.3203125 C-28.95061343 6.04877425 -26.40085249 3.60290738 -22.4765625 0.2890625 C-16.035862 -3.05730146 -6.56160155 -2.66516357 0 0 Z " fill="#666565" transform="translate(294.2890625,235.3359375)"/>
<path d="M0 0 C8.58 0 17.16 0 26 0 C26 13.86 26 27.72 26 42 C22 43 22 43 19.84936523 42.02783203 C19.09341064 41.52622559 18.33745605 41.02461914 17.55859375 40.5078125 C16.72779297 39.96769531 15.89699219 39.42757812 15.04101562 38.87109375 C14.18185547 38.29488281 13.32269531 37.71867187 12.4375 37.125 C10.72958155 35.99999323 9.02001492 34.87748354 7.30859375 33.7578125 C6.17635376 33.00201904 6.17635376 33.00201904 5.02124023 32.23095703 C2.92404887 30.85058976 2.92404887 30.85058976 0 30 C0 20.1 0 10.2 0 0 Z " fill="#F84A46" transform="translate(140,440)"/>
<path d="M0 0 C0.315647 5.89207726 0.05194778 10.82028581 -3 16 C-5.12290752 18.32662087 -7.45293617 20.15894534 -10 22 C-11.03125 22.804375 -12.0625 23.60875 -13.125 24.4375 C-16 26 -16 26 -18.36328125 25.79296875 C-24.39437799 23.97917225 -30.34801644 19.78421283 -33.5625 14.3125 C-35.79411346 9.17008637 -36.02609677 5.63690313 -36 0 C-4.13114754 -2.06557377 -4.13114754 -2.06557377 0 0 Z " fill="#FEB60E" transform="translate(385,184)"/>
<path d="M0 0 C0.54370275 6.52443303 0.07896892 11.69086585 -4 17 C-7.72626582 20.41686469 -11.80184549 23.20123033 -16 26 C-22.02777076 25.53326981 -26.57568796 21.86379953 -31 18 C-34.82787881 13.08556183 -36.06746174 7.16600281 -36 1 C-34.00663973 -0.99336027 -30.17348552 -0.41760636 -27.4375 -0.5625 C-26.68331787 -0.6042334 -25.92913574 -0.6459668 -25.15209961 -0.68896484 C-3.57695626 -1.78847813 -3.57695626 -1.78847813 0 0 Z " fill="#FEB60E" transform="translate(213,184)"/>
<path d="M0 0 C2.36497439 1.86708505 3.66030715 3.32061431 5 6 C5.07803565 8.4162149 5.13773901 10.83303747 5.1875 13.25 C5.42787846 19.64580103 5.42787846 19.64580103 9 24.75 C9.99 25.4925 10.98 26.235 12 27 C12.92350727 29.77052181 13.16329585 31.56688758 13.1875 34.4375 C13.20167969 35.19933594 13.21585937 35.96117187 13.23046875 36.74609375 C12.97612666 39.23347315 12.24017196 40.84808106 11 43 C5.72421333 42.42552545 2.03867035 41.65146449 -1.5 37.5 C-4.27159458 33.86613156 -5.13850423 31.6606889 -5.125 27.0625 C-5.12757813 26.18722656 -5.13015625 25.31195313 -5.1328125 24.41015625 C-5 22 -5 22 -4 19 C-6.31 19.33 -8.62 19.66 -11 20 C-11.1081866 17.41554227 -11.18737237 14.83562648 -11.25 12.25 C-11.28351563 11.52039063 -11.31703125 10.79078125 -11.3515625 10.0390625 C-11.41608132 6.49052724 -11.31108124 4.43010363 -9.203125 1.515625 C-5.98232224 -0.70010456 -3.8153271 -0.54504673 0 0 Z " fill="#6A6867" transform="translate(269,58)"/>
<path d="M0 0 C2.58761639 2.27657299 4.45501344 4.91002689 6 8 C6.08372659 9.52148326 6.10730027 11.04655778 6.09765625 12.5703125 C6.09515869 13.37742676 6.09266113 14.18454102 6.09008789 15.01611328 C6.08098389 16.0420459 6.07187988 17.06797852 6.0625 18.125 C6.041875 21.38375 6.02125 24.6425 6 28 C-0.93 28 -7.86 28 -15 28 C-15.0825 24.82375 -15.165 21.6475 -15.25 18.375 C-15.28641602 17.3854834 -15.32283203 16.3959668 -15.36035156 15.37646484 C-15.44854901 8.3391618 -13.9978229 5.20456931 -9.1875 0.0625 C-5.73501532 -1.61442113 -3.62546415 -1.08127878 0 0 Z " fill="#FEB60D" transform="translate(281,206)"/>
<path d="M0 0 C0.66 0 1.32 0 2 0 C3.85809101 4.49963651 5.70930915 9.00201493 7.55419922 13.50708008 C8.18284749 15.03943052 8.81337096 16.57101304 9.44580078 18.10180664 C10.35422284 20.30155706 11.25587781 22.50397586 12.15625 24.70703125 C12.44060913 25.39150833 12.72496826 26.07598541 13.01794434 26.78120422 C14.19839905 29.68591119 15 31.83205463 15 35 C5.43 35 -4.14 35 -14 35 C-9.66229228 23.17974648 -4.95646326 11.57346751 0 0 Z " fill="#954B2D" transform="translate(351,148)"/>
<path d="M0 0 C0.66 0 1.32 0 2 0 C3.99604587 4.82289274 5.98981562 9.64671745 7.98144531 14.47143555 C8.65985011 16.11394919 9.3388855 17.75620252 10.01855469 19.39819336 C10.99318145 21.75306778 11.96556553 24.10885709 12.9375 26.46484375 C13.24373291 27.20339096 13.54996582 27.94193817 13.86547852 28.7028656 C16 33.88612829 16 33.88612829 16 35 C6.1 35 -3.8 35 -14 35 C-9.33333333 23.33333333 -4.66666667 11.66666667 0 0 Z " fill="#954B2D" transform="translate(179,148)"/>
<path d="M0 0 C-0.06960938 1.30324219 -0.06960938 1.30324219 -0.140625 2.6328125 C-0.64596749 9.94007424 -0.64596749 9.94007424 1.75 16.625 C5.91695671 21.02345431 9.05134659 22.51283665 15 24 C9.04912999 31.60388946 9.04912999 31.60388946 3.4140625 32.3359375 C-2.56265178 32.41964498 -6.46881876 32.31541071 -11 28 C-14.09617542 24.27800189 -16.29238479 20.80114266 -16.5 15.875 C-15.77933378 10.28983683 -14.19692722 6.83248662 -9.9375 3.1875 C-6.17660443 0.38683309 -4.60864774 -0.1212802 0 0 Z " fill="#545555" transform="translate(265,77)"/>
<path d="M0 0 C2.203125 1.515625 2.203125 1.515625 4 4 C4.2906124 6.89449949 4.38186045 9.37949935 4.25 12.25 C4.23195313 12.99507812 4.21390625 13.74015625 4.1953125 14.5078125 C4.14835649 16.33909701 4.07661652 18.16971649 4 20 C-0.95 20 -5.9 20 -11 20 C-11.1081866 17.41554227 -11.18737237 14.83562648 -11.25 12.25 C-11.28351563 11.52039063 -11.31703125 10.79078125 -11.3515625 10.0390625 C-11.41608132 6.49052724 -11.31108124 4.43010363 -9.203125 1.515625 C-5.98232224 -0.70010456 -3.8153271 -0.54504673 0 0 Z " fill="#DADADA" transform="translate(269,58)"/>
<path d="M0 0 C7 1 7 1 8.9375 2.125 C10.6712306 5.18452459 10.42145216 7.56817525 10 11 C8.375 13.4375 8.375 13.4375 6 15 C4.02 15 2.04 15 0 15 C0 10.05 0 5.1 0 0 Z " fill="#DBD8D8" transform="translate(360,110)"/>
<path d="M0 0 C0 4.62 0 9.24 0 14 C-1.65 13.67 -3.3 13.34 -5 13 C-7.32579101 9.51131349 -7.41865457 8.10281481 -7 4 C-4.94946079 0.10397549 -4.61657431 0 0 0 Z " fill="#DBD8D8" transform="translate(172,111)"/>
</svg>
