<?xml version="1.0" encoding="UTF-8"?>
<svg version="1.1" xmlns="http://www.w3.org/2000/svg" width="512" height="512">
<path d="M0 0 C0.99579834 -0.00507454 1.99159668 -0.01014909 3.01757073 -0.0153774 C4.10938267 -0.01587516 5.20119462 -0.01637292 6.32609177 -0.01688576 C7.48767736 -0.02126801 8.64926296 -0.02565027 9.84604812 -0.03016531 C13.07101858 -0.04122169 16.29596168 -0.04777516 19.52094674 -0.05234647 C22.99891783 -0.05830906 26.47687111 -0.0699171 29.95483017 -0.08063698 C38.35371034 -0.10514355 46.75259639 -0.11978434 55.1515013 -0.13269705 C57.52386013 -0.13640986 59.89621837 -0.140383 62.26857662 -0.14444971 C77.00284174 -0.16968401 91.73710781 -0.19173549 106.47138977 -0.20417786 C109.88314187 -0.20710751 113.29489394 -0.21006918 116.70664597 -0.21308327 C117.55461069 -0.21382932 118.40257541 -0.21457537 119.27623603 -0.21534403 C133.01524246 -0.22799991 146.75411955 -0.26122747 160.49306551 -0.3028851 C174.60030645 -0.34530872 188.70748116 -0.36887326 202.81478572 -0.37409842 C210.73487455 -0.37751175 218.65476112 -0.3892578 226.57478714 -0.42220116 C233.31913374 -0.45020856 240.06323659 -0.46119798 246.80763683 -0.4500057 C250.24775321 -0.44482097 253.68735921 -0.44769261 257.12740135 -0.47247124 C260.86015553 -0.49509393 264.59162265 -0.48689768 268.32438278 -0.47098732 C269.40727184 -0.48486941 270.49016089 -0.49875149 271.60586476 -0.51305425 C279.188018 -0.43339241 284.13126249 1.29791847 289.59920526 6.61510813 C294.51812444 12.13993303 295.37533335 17.03858464 295.30625534 24.23198509 C295.30654739 25.03250801 295.30683945 25.83303093 295.30714035 26.65781212 C295.30575161 29.29291847 295.29021195 31.92773893 295.27451706 34.56279564 C295.27078531 36.39410815 295.2679391 38.22542267 295.26594162 40.0567379 C295.25831793 44.86868905 295.23868029 49.6805188 295.21653366 54.4924221 C295.196048 59.40583721 295.18693409 64.31927198 295.17686081 69.23271751 C295.15543322 78.86753637 295.12131252 88.50226527 295.07920456 98.13701439 C296.22766106 98.12702164 296.22766106 98.12702164 297.3993187 98.11682701 C304.62336872 98.05665478 311.8472968 98.01100911 319.07153225 97.98157787 C322.7853803 97.96593816 326.49902084 97.9447313 330.21274948 97.91069603 C333.79836497 97.87804144 337.38378118 97.86014863 340.96953392 97.85238266 C342.33585687 97.84685003 343.70216921 97.83604603 345.06840706 97.81982422 C346.98555313 97.79797163 348.90290077 97.79678832 350.82017136 97.79643822 C351.91049164 97.78977638 353.00081192 97.78311455 354.12417221 97.77625084 C357.56668216 98.19652783 359.40435233 98.93040557 362.07920456 101.13701439 C362.40920456 102.78701439 362.73920456 104.43701439 363.07920456 106.13701439 C369.34920456 106.13701439 375.61920456 106.13701439 382.07920456 106.13701439 C382.40920456 104.48701439 382.73920456 102.83701439 383.07920456 101.13701439 C386.60226087 98.27491273 389.39478993 97.75950797 393.85996628 97.7488308 C394.99819839 97.73937431 396.13643051 97.72991783 397.30915451 97.72017479 C398.5300679 97.72624748 399.75098129 97.73232018 401.00889206 97.73857689 C402.27258621 97.73570671 403.53628036 97.73283653 404.83826828 97.72987938 C407.50987778 97.72783893 410.18066235 97.73185367 412.85215378 97.74590111 C416.26053578 97.76295825 419.66820716 97.75316884 423.07656288 97.73518372 C426.34569724 97.72167202 429.61474838 97.73116304 432.88389206 97.73857689 C434.10075699 97.7325042 435.31762192 97.7264315 436.57136154 97.72017479 C447.82364756 97.81314434 447.82364756 97.81314434 453.07920456 101.13701439 C456.60409598 105.53299736 457.57953973 108.45867445 457.58256912 114.05863762 C457.58838289 114.73404746 457.59419665 115.4094573 457.60018659 116.1053341 C457.61477772 118.36719499 457.60090665 120.62796915 457.58713913 122.88982201 C457.59174842 124.52827557 457.59810153 126.16672499 457.60604811 127.80516577 C457.62276073 132.30656327 457.61448631 136.80762197 457.60210323 141.30902076 C457.59306297 146.16390461 457.60701738 151.01872969 457.61802292 155.87360191 C457.63582366 165.38391374 457.63196122 174.8940994 457.62037235 184.4044162 C457.61134443 192.13258916 457.61011126 199.86072672 457.61446762 207.58890343 C457.61508055 208.68817656 457.61569349 209.7874497 457.61632499 210.92003414 C457.61760387 213.15307956 457.61890073 215.38612497 457.62021536 217.61917037 C457.63162571 238.56597725 457.61850029 259.51271415 457.59701389 280.45950955 C457.57914251 298.43879752 457.58224649 316.41798219 457.60068893 334.3972683 C457.62208759 355.26833692 457.63052703 376.13934417 457.61823988 397.01042223 C457.61696566 399.23532326 457.61570818 401.4602243 457.61446762 403.68512535 C457.61354197 405.32723172 457.61354197 405.32723172 457.61259761 407.00251195 C457.6091417 414.72277101 457.61497826 422.4429912 457.62438583 430.16324425 C457.63559602 439.56970993 457.63258639 448.97604207 457.61126286 458.38249242 C457.60073926 463.1832339 457.59665292 467.98375259 457.60985947 472.78449249 C457.62176208 477.17762728 457.61525614 481.57033238 457.59394926 485.96342808 C457.58947413 487.55418855 457.59176986 489.14498518 457.60145241 490.73572248 C457.61359563 492.89613002 457.60116472 495.05506096 457.58256912 497.21539116 C457.58191971 498.41585217 457.5812703 499.61631318 457.58060122 500.8531518 C456.97048406 504.84907176 455.58973795 507.00193463 453.07920456 510.13701439 C449.7644209 512.34687016 448.75778304 512.38902313 444.90105343 512.39707661 C443.82241124 512.4041422 442.74376906 512.41120779 441.63244075 512.41848749 C440.44296897 512.4160724 439.25349718 512.41365732 438.0279808 512.41116905 C436.76783325 512.41640573 435.50768569 512.42164241 434.20935184 512.42703778 C430.70460599 512.44124815 427.19994869 512.4428805 423.69517815 512.44244087 C419.91796597 512.44408641 416.14079056 512.457148 412.36359787 512.46863365 C404.10124001 512.49150324 395.83890781 512.49940635 387.57652259 512.5044601 C382.41899911 512.50771483 377.26148311 512.51423594 372.10396385 512.52146149 C357.82860904 512.54102993 343.5532612 512.55743272 329.27789211 512.56033802 C327.9070764 512.56061938 327.9070764 512.56061938 326.50856744 512.56090641 C324.65585506 512.56127267 322.80314268 512.56163637 320.9504303 512.56199753 C319.57086667 512.56227174 319.57086667 512.56227174 318.16343307 512.5625515 C317.24260348 512.56273205 316.32177388 512.5629126 315.37304036 512.56309862 C300.44924339 512.56664094 285.52559067 512.59366585 270.60184374 512.63104939 C255.28552396 512.66910976 239.9692758 512.68849533 224.65290767 512.68879753 C216.05100945 512.68938261 207.44928328 512.69790717 198.84742928 512.7267952 C191.52328711 512.75127879 184.19937974 512.75861254 176.87520774 512.74354767 C173.13765496 512.73636625 169.40056607 512.73728839 165.66306496 512.75995827 C161.6121601 512.78429387 157.56231594 512.76994732 153.51137924 512.75174522 C152.32859963 512.76494519 151.14582001 512.77814516 149.92719859 512.79174513 C141.06525222 512.70048302 141.06525222 512.70048302 137.38691044 509.74898434 C133.37703164 505.21041509 132.78764996 501.61343674 132.76670456 495.63701439 C132.74994675 494.53357689 132.73318893 493.43013939 132.71592331 492.29326439 C133.12548929 488.73488466 133.79114675 486.8886656 136.07920456 484.13701439 C137.72920456 483.80701439 139.37920456 483.47701439 141.07920456 483.13701439 C141.07920456 476.86701439 141.07920456 470.59701439 141.07920456 464.13701439 C139.42920456 463.80701439 137.77920456 463.47701439 136.07920456 463.13701439 C133.477322 459.81737113 133.07920456 458.44385397 133.07920456 454.13701439 C125.81920456 454.13701439 118.55920456 454.13701439 111.07920456 454.13701439 C111.07920456 456.44701439 111.07920456 458.75701439 111.07920456 461.13701439 C109.36703419 464.49794142 108.01506501 466.53910354 104.82920456 468.57451439 C99.01680185 469.76341494 94.53222555 468.6791839 89.57920456 465.63310814 C88.06912023 464.62857378 86.56914403 463.60869248 85.07920456 462.57451439 C84.304478 462.05437767 83.52975143 461.53424095 82.73154831 460.99834251 C80.83798787 459.72428024 78.95478434 458.43733545 77.07920456 457.13701439 C76.38955612 457.58431908 75.69990768 458.03162376 74.98936081 458.49248314 C72.03217844 460.3949777 69.05666987 462.26645652 66.07920456 464.13701439 C65.26967331 464.6693972 64.46014206 465.20178001 63.62607956 465.75029564 C60.01992841 467.98837895 57.2114468 469.54017961 52.89170456 469.26201439 C48.36340123 467.92579373 46.15526332 466.73825391 43.07920456 463.13701439 C42.61021042 460.87529564 42.61021042 460.87529564 42.41904831 458.44951439 C42.34935837 457.6412722 42.27966843 456.83303001 42.20786667 456.00029564 C42.16540817 455.38541283 42.12294968 454.77053001 42.07920456 454.13701439 C40.7986821 454.15272484 39.51815964 454.16843529 38.19883347 454.18462181 C33.40918491 454.23927247 28.61956345 454.27349146 23.82969284 454.30180931 C21.76389035 454.31681631 19.69811928 454.33722839 17.63242722 454.36333275 C14.64846118 454.400074 11.66491949 454.41682203 8.68076706 454.42998314 C7.31451691 454.45320892 7.31451691 454.45320892 5.92066574 454.47690392 C-4.07553288 454.4794774 -12.57789586 452.13250797 -19.92079544 445.13701439 C-28.88914811 435.31453289 -29.36018636 425.60760708 -29.30847549 412.86690331 C-29.31265069 411.196578 -29.31812922 409.52625554 -29.32479531 407.85593832 C-29.33924434 403.27562516 -29.33500686 398.69549203 -29.32762849 394.11516905 C-29.32289779 389.17163308 -29.33540584 384.22813612 -29.3456459 379.28461266 C-29.36284126 369.60347409 -29.36367236 359.9224004 -29.358433 350.24125053 C-29.35439136 342.37204996 -29.35583479 334.50286856 -29.36118126 326.6336689 C-29.36192968 325.51361875 -29.3626781 324.39356859 -29.3634492 323.23957752 C-29.36498068 320.9641821 -29.36651903 318.68878669 -29.36806417 316.41339128 C-29.38179194 295.07541675 -29.37634963 273.73747888 -29.36487896 252.39950518 C-29.35494679 232.88105633 -29.36788651 213.36270227 -29.39181315 193.84426804 C-29.4161994 173.79979665 -29.42581315 153.75536942 -29.41916043 133.7108835 C-29.41566709 122.45860816 -29.41790782 111.20640574 -29.43541145 99.95414162 C-29.45012748 90.37510456 -29.45077668 80.79619175 -29.43334054 71.21715714 C-29.4248232 66.33084191 -29.422699 61.44474868 -29.4379921 56.55844498 C-29.45182719 52.08253923 -29.44709116 47.60704594 -29.42775286 43.13116412 C-29.42398893 41.51481731 -29.42692618 39.89843755 -29.43736451 38.28212006 C-29.50877697 26.3744888 -28.34218323 16.86070096 -19.92079544 7.89482689 C-14.05309284 2.7376664 -7.78147223 0.02109046 0 0 Z " fill="#F7F1EF" transform="translate(41.92079544067383,-0.13701438903808594)"/>
<path d="M0 0 C0.99579834 -0.00507454 1.99159668 -0.01014909 3.01757073 -0.0153774 C4.10938267 -0.01587516 5.20119462 -0.01637292 6.32609177 -0.01688576 C7.48767736 -0.02126801 8.64926296 -0.02565027 9.84604812 -0.03016531 C13.07101858 -0.04122169 16.29596168 -0.04777516 19.52094674 -0.05234647 C22.99891783 -0.05830906 26.47687111 -0.0699171 29.95483017 -0.08063698 C38.35371034 -0.10514355 46.75259639 -0.11978434 55.1515013 -0.13269705 C57.52386013 -0.13640986 59.89621837 -0.140383 62.26857662 -0.14444971 C77.00284174 -0.16968401 91.73710781 -0.19173549 106.47138977 -0.20417786 C109.88314187 -0.20710751 113.29489394 -0.21006918 116.70664597 -0.21308327 C117.55461069 -0.21382932 118.40257541 -0.21457537 119.27623603 -0.21534403 C133.01524246 -0.22799991 146.75411955 -0.26122747 160.49306551 -0.3028851 C174.60030645 -0.34530872 188.70748116 -0.36887326 202.81478572 -0.37409842 C210.73487455 -0.37751175 218.65476112 -0.3892578 226.57478714 -0.42220116 C233.31913374 -0.45020856 240.06323659 -0.46119798 246.80763683 -0.4500057 C250.24775321 -0.44482097 253.68735921 -0.44769261 257.12740135 -0.47247124 C260.86015553 -0.49509393 264.59162265 -0.48689768 268.32438278 -0.47098732 C269.40727184 -0.48486941 270.49016089 -0.49875149 271.60586476 -0.51305425 C279.188018 -0.43339241 284.13126249 1.29791847 289.59920526 6.61510813 C294.51812444 12.13993303 295.37533335 17.03858464 295.30625534 24.23198509 C295.30654739 25.03250801 295.30683945 25.83303093 295.30714035 26.65781212 C295.30575161 29.29291847 295.29021195 31.92773893 295.27451706 34.56279564 C295.27078531 36.39410815 295.2679391 38.22542267 295.26594162 40.0567379 C295.25831793 44.86868905 295.23868029 49.6805188 295.21653366 54.4924221 C295.196048 59.40583721 295.18693409 64.31927198 295.17686081 69.23271751 C295.15543322 78.86753637 295.12131252 88.50226527 295.07920456 98.13701439 C296.22766106 98.12702164 296.22766106 98.12702164 297.3993187 98.11682701 C304.62336872 98.05665478 311.8472968 98.01100911 319.07153225 97.98157787 C322.7853803 97.96593816 326.49902084 97.9447313 330.21274948 97.91069603 C333.79836497 97.87804144 337.38378118 97.86014863 340.96953392 97.85238266 C342.33585687 97.84685003 343.70216921 97.83604603 345.06840706 97.81982422 C346.98555313 97.79797163 348.90290077 97.79678832 350.82017136 97.79643822 C351.91049164 97.78977638 353.00081192 97.78311455 354.12417221 97.77625084 C357.49906055 98.18827228 359.373748 99.10592682 362.07920456 101.13701439 C363.25273183 104.10995014 363.20002136 105.67571386 362.39170456 108.76201439 C360.83522307 111.5785047 359.89076222 112.55467116 357.07920456 114.13701439 C354.2124642 114.41992015 351.56673569 114.52916472 348.70170212 114.49777794 C347.84890553 114.50034121 346.99610894 114.50290449 346.11747003 114.50554544 C343.25523967 114.51049327 340.39353489 114.49397391 337.531353 114.47759056 C335.48152809 114.4767445 333.43170228 114.47721901 331.3818779 114.47891808 C325.81196513 114.47978029 320.24224541 114.46211783 314.67237759 114.4411962 C308.85342698 114.42246714 303.03447216 114.42068194 297.21549606 114.41711998 C286.19413748 114.40778843 275.17286796 114.38315959 264.15154862 114.35307151 C251.60515329 114.31956206 239.05875374 114.30305018 226.51232481 114.28798521 C200.70123531 114.25661104 174.89022492 114.20382893 149.07920456 114.13701439 C149.08148288 115.22600683 149.08148288 115.22600683 149.08380723 116.33699912 C149.17327222 159.34210756 149.24192684 202.3472059 149.28346588 245.35238872 C149.28846885 250.51326345 149.29364612 255.67413799 149.29893112 260.83501244 C149.29998036 261.86247237 149.30102961 262.88993229 149.30211064 263.94852737 C149.31952743 280.59648445 149.35107213 297.24438641 149.38781574 313.89231076 C149.42518972 330.96794885 149.44743291 348.04355802 149.45555854 365.11923534 C149.46105367 375.66031269 149.47842466 386.20123429 149.51087043 396.74226371 C149.53197459 403.96549844 149.53841392 411.18865235 149.53321007 418.41191568 C149.53064189 422.58266583 149.53464577 426.75314333 149.55602646 430.92384529 C149.57544945 434.7404411 149.57650261 438.55658015 149.56280014 442.3731967 C149.56110589 443.75551987 149.56621643 445.1378712 149.57873729 446.5201387 C149.59474847 448.39649234 149.58376413 450.27301857 149.57139587 452.14939976 C149.5736742 453.71403738 149.5736742 453.71403738 149.57599854 455.31028384 C148.94372538 458.90788347 147.64238053 460.57350333 145.07920456 463.13701439 C141.42856672 464.18005377 139.2381463 464.62498986 135.70420456 463.13701439 C134.07920456 461.13701439 134.07920456 461.13701439 133.07920456 454.13701439 C125.81920456 454.13701439 118.55920456 454.13701439 111.07920456 454.13701439 C111.07920456 456.44701439 111.07920456 458.75701439 111.07920456 461.13701439 C109.36703419 464.49794142 108.01506501 466.53910354 104.82920456 468.57451439 C99.01680185 469.76341494 94.53222555 468.6791839 89.57920456 465.63310814 C88.06912023 464.62857378 86.56914403 463.60869248 85.07920456 462.57451439 C84.304478 462.05437767 83.52975143 461.53424095 82.73154831 460.99834251 C80.83798787 459.72428024 78.95478434 458.43733545 77.07920456 457.13701439 C76.38955612 457.58431908 75.69990768 458.03162376 74.98936081 458.49248314 C72.03217844 460.3949777 69.05666987 462.26645652 66.07920456 464.13701439 C65.26967331 464.6693972 64.46014206 465.20178001 63.62607956 465.75029564 C60.01992841 467.98837895 57.2114468 469.54017961 52.89170456 469.26201439 C48.36340123 467.92579373 46.15526332 466.73825391 43.07920456 463.13701439 C42.61021042 460.87529564 42.61021042 460.87529564 42.41904831 458.44951439 C42.34935837 457.6412722 42.27966843 456.83303001 42.20786667 456.00029564 C42.16540817 455.38541283 42.12294968 454.77053001 42.07920456 454.13701439 C40.7986821 454.15272484 39.51815964 454.16843529 38.19883347 454.18462181 C33.40918491 454.23927247 28.61956345 454.27349146 23.82969284 454.30180931 C21.76389035 454.31681631 19.69811928 454.33722839 17.63242722 454.36333275 C14.64846118 454.400074 11.66491949 454.41682203 8.68076706 454.42998314 C7.31451691 454.45320892 7.31451691 454.45320892 5.92066574 454.47690392 C-4.07553288 454.4794774 -12.57789586 452.13250797 -19.92079544 445.13701439 C-28.88914811 435.31453289 -29.36018636 425.60760708 -29.30847549 412.86690331 C-29.31265069 411.196578 -29.31812922 409.52625554 -29.32479531 407.85593832 C-29.33924434 403.27562516 -29.33500686 398.69549203 -29.32762849 394.11516905 C-29.32289779 389.17163308 -29.33540584 384.22813612 -29.3456459 379.28461266 C-29.36284126 369.60347409 -29.36367236 359.9224004 -29.358433 350.24125053 C-29.35439136 342.37204996 -29.35583479 334.50286856 -29.36118126 326.6336689 C-29.36192968 325.51361875 -29.3626781 324.39356859 -29.3634492 323.23957752 C-29.36498068 320.9641821 -29.36651903 318.68878669 -29.36806417 316.41339128 C-29.38179194 295.07541675 -29.37634963 273.73747888 -29.36487896 252.39950518 C-29.35494679 232.88105633 -29.36788651 213.36270227 -29.39181315 193.84426804 C-29.4161994 173.79979665 -29.42581315 153.75536942 -29.41916043 133.7108835 C-29.41566709 122.45860816 -29.41790782 111.20640574 -29.43541145 99.95414162 C-29.45012748 90.37510456 -29.45077668 80.79619175 -29.43334054 71.21715714 C-29.4248232 66.33084191 -29.422699 61.44474868 -29.4379921 56.55844498 C-29.45182719 52.08253923 -29.44709116 47.60704594 -29.42775286 43.13116412 C-29.42398893 41.51481731 -29.42692618 39.89843755 -29.43736451 38.28212006 C-29.50877697 26.3744888 -28.34218323 16.86070096 -19.92079544 7.89482689 C-14.05309284 2.7376664 -7.78147223 0.02109046 0 0 Z " fill="#A34E3D" transform="translate(41.92079544067383,-0.13701438903808594)"/>
<path d="M0 0 C0.99579834 -0.00507454 1.99159668 -0.01014909 3.01757073 -0.0153774 C4.10938267 -0.01587516 5.20119462 -0.01637292 6.32609177 -0.01688576 C7.48767736 -0.02126801 8.64926296 -0.02565027 9.84604812 -0.03016531 C13.07101858 -0.04122169 16.29596168 -0.04777516 19.52094674 -0.05234647 C22.99891783 -0.05830906 26.47687111 -0.0699171 29.95483017 -0.08063698 C38.35371034 -0.10514355 46.75259639 -0.11978434 55.1515013 -0.13269705 C57.52386013 -0.13640986 59.89621837 -0.140383 62.26857662 -0.14444971 C77.00284174 -0.16968401 91.73710781 -0.19173549 106.47138977 -0.20417786 C109.88314187 -0.20710751 113.29489394 -0.21006918 116.70664597 -0.21308327 C117.55461069 -0.21382932 118.40257541 -0.21457537 119.27623603 -0.21534403 C133.01524246 -0.22799991 146.75411955 -0.26122747 160.49306551 -0.3028851 C174.60030645 -0.34530872 188.70748116 -0.36887326 202.81478572 -0.37409842 C210.73487455 -0.37751175 218.65476112 -0.3892578 226.57478714 -0.42220116 C233.31913374 -0.45020856 240.06323659 -0.46119798 246.80763683 -0.4500057 C250.24775321 -0.44482097 253.68735921 -0.44769261 257.12740135 -0.47247124 C260.86015553 -0.49509393 264.59162265 -0.48689768 268.32438278 -0.47098732 C269.40727184 -0.48486941 270.49016089 -0.49875149 271.60586476 -0.51305425 C279.188018 -0.43339241 284.13126249 1.29791847 289.59920526 6.61510813 C294.51812444 12.13993303 295.37533335 17.03858464 295.30625534 24.23198509 C295.30654739 25.03250801 295.30683945 25.83303093 295.30714035 26.65781212 C295.30575161 29.29291847 295.29021195 31.92773893 295.27451706 34.56279564 C295.27078531 36.39410815 295.2679391 38.22542267 295.26594162 40.0567379 C295.25831793 44.86868905 295.23868029 49.6805188 295.21653366 54.4924221 C295.196048 59.40583721 295.18693409 64.31927198 295.17686081 69.23271751 C295.15543322 78.86753637 295.12131252 88.50226527 295.07920456 98.13701439 C296.22766106 98.12702164 296.22766106 98.12702164 297.3993187 98.11682701 C304.62336872 98.05665478 311.8472968 98.01100911 319.07153225 97.98157787 C322.7853803 97.96593816 326.49902084 97.9447313 330.21274948 97.91069603 C333.79836497 97.87804144 337.38378118 97.86014863 340.96953392 97.85238266 C342.33585687 97.84685003 343.70216921 97.83604603 345.06840706 97.81982422 C346.98555313 97.79797163 348.90290077 97.79678832 350.82017136 97.79643822 C351.91049164 97.78977638 353.00081192 97.78311455 354.12417221 97.77625084 C357.49906055 98.18827228 359.373748 99.10592682 362.07920456 101.13701439 C363.25273183 104.10995014 363.20002136 105.67571386 362.39170456 108.76201439 C360.83522307 111.5785047 359.89076222 112.55467116 357.07920456 114.13701439 C354.2124642 114.41992015 351.56673569 114.52916472 348.70170212 114.49777794 C347.84890553 114.50034121 346.99610894 114.50290449 346.11747003 114.50554544 C343.25523967 114.51049327 340.39353489 114.49397391 337.531353 114.47759056 C335.48152809 114.4767445 333.43170228 114.47721901 331.3818779 114.47891808 C325.81196513 114.47978029 320.24224541 114.46211783 314.67237759 114.4411962 C308.85342698 114.42246714 303.03447216 114.42068194 297.21549606 114.41711998 C286.19413748 114.40778843 275.17286796 114.38315959 264.15154862 114.35307151 C251.60515329 114.31956206 239.05875374 114.30305018 226.51232481 114.28798521 C200.70123531 114.25661104 174.89022492 114.20382893 149.07920456 114.13701439 C149.08148288 115.22600683 149.08148288 115.22600683 149.08380723 116.33699912 C149.17327222 159.34210756 149.24192684 202.3472059 149.28346588 245.35238872 C149.28846885 250.51326345 149.29364612 255.67413799 149.29893112 260.83501244 C149.29998036 261.86247237 149.30102961 262.88993229 149.30211064 263.94852737 C149.31952743 280.59648445 149.35107213 297.24438641 149.38781574 313.89231076 C149.42518972 330.96794885 149.44743291 348.04355802 149.45555854 365.11923534 C149.46105367 375.66031269 149.47842466 386.20123429 149.51087043 396.74226371 C149.53197459 403.96549844 149.53841392 411.18865235 149.53321007 418.41191568 C149.53064189 422.58266583 149.53464577 426.75314333 149.55602646 430.92384529 C149.57544945 434.7404411 149.57650261 438.55658015 149.56280014 442.3731967 C149.56110589 443.75551987 149.56621643 445.1378712 149.57873729 446.5201387 C149.59474847 448.39649234 149.58376413 450.27301857 149.57139587 452.14939976 C149.5736742 453.71403738 149.5736742 453.71403738 149.57599854 455.31028384 C148.94372538 458.90788347 147.64238053 460.57350333 145.07920456 463.13701439 C141.42856672 464.18005377 139.2381463 464.62498986 135.70420456 463.13701439 C134.07920456 461.13701439 134.07920456 461.13701439 133.07920456 454.13701439 C125.81920456 454.13701439 118.55920456 454.13701439 111.07920456 454.13701439 C111.07920456 456.44701439 111.07920456 458.75701439 111.07920456 461.13701439 C109.36703419 464.49794142 108.01506501 466.53910354 104.82920456 468.57451439 C99.01680185 469.76341494 94.53222555 468.6791839 89.57920456 465.63310814 C88.06912023 464.62857378 86.56914403 463.60869248 85.07920456 462.57451439 C84.304478 462.05437767 83.52975143 461.53424095 82.73154831 460.99834251 C80.83798787 459.72428024 78.95478434 458.43733545 77.07920456 457.13701439 C76.38955612 457.58431908 75.69990768 458.03162376 74.98936081 458.49248314 C72.03217844 460.3949777 69.05666987 462.26645652 66.07920456 464.13701439 C65.26967331 464.6693972 64.46014206 465.20178001 63.62607956 465.75029564 C60.01992841 467.98837895 57.2114468 469.54017961 52.89170456 469.26201439 C48.36340123 467.92579373 46.15526332 466.73825391 43.07920456 463.13701439 C42.61021042 460.87529564 42.61021042 460.87529564 42.41904831 458.44951439 C42.34935837 457.6412722 42.27966843 456.83303001 42.20786667 456.00029564 C42.16540817 455.38541283 42.12294968 454.77053001 42.07920456 454.13701439 C40.7986821 454.15272484 39.51815964 454.16843529 38.19883347 454.18462181 C33.40918491 454.23927247 28.61956345 454.27349146 23.82969284 454.30180931 C21.76389035 454.31681631 19.69811928 454.33722839 17.63242722 454.36333275 C14.64846118 454.400074 11.66491949 454.41682203 8.68076706 454.42998314 C7.31451691 454.45320892 7.31451691 454.45320892 5.92066574 454.47690392 C-4.07553288 454.4794774 -12.57789586 452.13250797 -19.92079544 445.13701439 C-28.88914811 435.31453289 -29.36018636 425.60760708 -29.30847549 412.86690331 C-29.31265069 411.196578 -29.31812922 409.52625554 -29.32479531 407.85593832 C-29.33924434 403.27562516 -29.33500686 398.69549203 -29.32762849 394.11516905 C-29.32289779 389.17163308 -29.33540584 384.22813612 -29.3456459 379.28461266 C-29.36284126 369.60347409 -29.36367236 359.9224004 -29.358433 350.24125053 C-29.35439136 342.37204996 -29.35583479 334.50286856 -29.36118126 326.6336689 C-29.36192968 325.51361875 -29.3626781 324.39356859 -29.3634492 323.23957752 C-29.36498068 320.9641821 -29.36651903 318.68878669 -29.36806417 316.41339128 C-29.38179194 295.07541675 -29.37634963 273.73747888 -29.36487896 252.39950518 C-29.35494679 232.88105633 -29.36788651 213.36270227 -29.39181315 193.84426804 C-29.4161994 173.79979665 -29.42581315 153.75536942 -29.41916043 133.7108835 C-29.41566709 122.45860816 -29.41790782 111.20640574 -29.43541145 99.95414162 C-29.45012748 90.37510456 -29.45077668 80.79619175 -29.43334054 71.21715714 C-29.4248232 66.33084191 -29.422699 61.44474868 -29.4379921 56.55844498 C-29.45182719 52.08253923 -29.44709116 47.60704594 -29.42775286 43.13116412 C-29.42398893 41.51481731 -29.42692618 39.89843755 -29.43736451 38.28212006 C-29.50877697 26.3744888 -28.34218323 16.86070096 -19.92079544 7.89482689 C-14.05309284 2.7376664 -7.78147223 0.02109046 0 0 Z M-9.92079544 20.13701439 C-14.85471248 26.69910933 -14.47358096 32.8494672 -14.40181351 40.84854698 C-14.40355901 42.25289885 -14.40706355 43.65724945 -14.41217017 45.06159312 C-14.42109816 48.91107901 -14.40513682 52.76011825 -14.38505793 56.60954726 C-14.36776576 60.76420021 -14.37363088 64.91882848 -14.37666702 69.07350731 C-14.37876327 76.26857967 -14.36622539 83.4635068 -14.34371567 90.65854263 C-14.31119177 101.06130038 -14.30078825 111.46398799 -14.2957637 121.86679108 C-14.28701167 138.74507263 -14.26039855 155.6232768 -14.22255325 172.50151634 C-14.18583081 188.89604366 -14.15752018 205.29054995 -14.140522 221.68511009 C-14.13947111 222.69586253 -14.13842022 223.70661497 -14.13733748 224.74799626 C-14.13211728 229.81870185 -14.12706246 234.88940758 -14.12208986 239.96011341 C-14.08063067 282.01913422 -14.01018471 324.07806988 -13.92079544 366.13701439 C-12.80930382 365.71449394 -12.80930382 365.71449394 -11.67535782 365.28343773 C-10.6956955 364.91768639 -9.71603317 364.55193504 -8.70668411 364.17510033 C-7.7388147 363.81092003 -6.77094528 363.44673973 -5.77374649 363.07152367 C-1.90048137 361.80280152 1.7177038 361.47258405 5.76670456 361.38701439 C6.8369487 361.34254173 6.8369487 361.34254173 7.92881393 361.29717064 C9.64504973 361.22806047 11.3621184 361.18010313 13.07920456 361.13701439 C13.0850708 359.97856514 13.09093704 358.82011589 13.09698105 357.62656212 C13.15413141 346.72269561 13.22685255 335.81903002 13.31491947 324.91536808 C13.35969523 319.30933309 13.39893541 313.70337198 13.42564011 308.09721947 C13.45160124 302.68951787 13.49195242 297.28209953 13.54239082 291.87457275 C13.5591083 289.80889273 13.57059207 287.74316367 13.57681847 285.67742538 C13.58640657 282.78954633 13.61440201 279.90239999 13.64683151 277.01469994 C13.64539642 276.15586708 13.64396133 275.29703423 13.64248276 274.41217613 C13.73528416 268.58983873 13.73528416 268.58983873 15.38537502 266.41723919 C18.19342902 264.29486484 20.69774811 264.77471548 24.07920456 265.13701439 C25.7730341 266.41723919 25.7730341 266.41723919 27.07920456 268.13701439 C27.38924417 271.16286379 27.51659651 273.98615973 27.51157761 277.01469994 C27.5218514 277.93689481 27.53212519 278.85908968 27.5427103 279.80922985 C27.57262491 282.79746407 27.58214431 285.7853698 27.59092331 288.77373314 C27.60638456 290.61737283 27.62318054 292.46100183 27.64133835 294.30461693 C27.69931878 301.14446466 27.73143446 307.98451185 27.76670456 314.82451439 C27.86982956 330.10763939 27.97295456 345.39076439 28.07920456 361.13701439 C63.05920456 361.13701439 98.03920456 361.13701439 134.07920456 361.13701439 C134.0990239 353.46878441 134.11884323 345.80055443 134.13926315 337.89995384 C134.20405248 313.37262192 134.27858374 288.84532891 134.35925617 264.31804438 C134.37177524 260.50908476 134.38420799 256.70012486 134.39658737 252.89116478 C134.39905337 252.13286018 134.40151936 251.37455558 134.40406008 250.59327205 C134.44379829 238.31026162 134.47654093 226.02724198 134.50670438 213.74420474 C134.53780369 201.1433846 134.57640657 188.54260361 134.62199461 175.94182748 C134.64989431 168.16467255 134.67192092 160.3875463 134.68646707 152.61035474 C134.69824212 146.64970548 134.72045017 140.68912397 134.74658775 134.72851944 C134.755677 132.28115554 134.76135689 129.83377631 134.7634182 127.38639641 C134.76673117 124.05119185 134.78218281 120.71625874 134.80073166 117.38110924 C134.79879692 116.40737258 134.79686219 115.43363592 134.79486883 114.43039209 C134.86918269 105.52389048 134.86918269 105.52389048 137.07920456 102.13701439 C140.65533935 100.08769026 143.85161294 99.8807501 147.91949081 99.85854149 C149.0875174 99.84737801 150.25554398 99.83621452 151.4589653 99.82471275 C152.73139084 99.82255257 154.00381638 99.82039238 155.31480026 99.81816673 C156.67513243 99.80886349 158.0354589 99.79869422 159.39577866 99.78772545 C163.0813034 99.76045597 166.76678998 99.74528514 170.452389 99.73229742 C174.30681366 99.7166535 178.16116056 99.6898673 182.01552963 99.66426659 C189.3110231 99.61750112 196.60653124 99.58074622 203.90209788 99.54759371 C212.20923807 99.50935654 220.51630011 99.45995056 228.82337439 99.40960956 C245.90859456 99.3063229 262.99385998 99.2170519 280.07920456 99.13701439 C280.19501748 88.77551302 280.28387878 78.41416542 280.33826542 68.05214882 C280.36436752 63.24068669 280.39977658 58.42966711 280.45640182 53.6184597 C280.51070002 48.97595683 280.54062048 44.33387979 280.55359077 39.69108391 C280.56283464 37.91919054 280.58088596 36.14732068 280.60785484 34.37560844 C280.64411745 31.89484736 280.64915129 29.41584912 280.64683151 26.93486595 C280.66480789 26.20118797 280.68278427 25.46750999 280.70130539 24.71159935 C280.66706007 21.33041973 280.41758691 19.52417334 278.16527176 16.94719505 C273.78054144 14.37526336 270.09901948 14.5944692 265.10085678 14.65599632 C264.08794722 14.65257862 263.07503767 14.64916092 262.03143388 14.64563966 C258.63325229 14.63904473 255.23585845 14.66106429 251.83774948 14.68291283 C249.40354557 14.68404095 246.9693403 14.68340813 244.53513718 14.68114281 C239.29240092 14.68023158 234.04984319 14.69158566 228.80716133 14.71409416 C221.22716477 14.74661631 213.64726447 14.75702137 206.0672057 14.76204613 C193.76882324 14.77079846 181.47054696 14.79741232 169.17222214 14.83525658 C157.226264 14.87197829 145.28033471 14.90028925 133.33433151 14.91728783 C132.22962008 14.91886417 132.22962008 14.91886417 131.10259124 14.92047235 C127.40787899 14.92569254 123.71316654 14.93074736 120.01845396 14.93571997 C89.37196147 14.97718008 58.72559776 15.04792433 28.07920456 15.13701439 C28.07681621 16.28260952 28.07442785 17.42820465 28.07196712 18.60851479 C28.01322425 46.45791544 27.93737384 74.30722922 27.84348965 102.15653419 C27.83451808 104.83541151 27.82561045 107.51428903 27.81675339 110.19316673 C27.8145497 110.85902459 27.81234602 111.52488244 27.81007556 112.2109178 C27.77468668 122.99760277 27.74983154 133.78428766 27.72885754 144.57100919 C27.70710813 155.63615447 27.67384267 166.70122878 27.630503 177.76631141 C27.60652116 183.9826882 27.58782492 190.19898133 27.58159065 196.41540337 C27.57556223 202.26272062 27.55564382 208.10982366 27.52492905 213.95706177 C27.51611275 216.10651795 27.51243362 218.25600208 27.5141964 220.40547562 C27.51584017 223.33391848 27.4992265 226.26170133 27.47793198 229.19005394 C27.48277955 230.04608404 27.48762713 230.90211415 27.4926216 231.78408456 C27.45237047 235.1243686 27.31916477 237.67188278 25.7730341 240.66885567 C24.07920456 242.13701439 24.07920456 242.13701439 20.57920456 242.57451439 C17.07920456 242.13701439 17.07920456 242.13701439 15.38450211 240.8513853 C13.06603073 237.80631724 13.65979534 233.95355757 13.68047714 230.27234459 C13.67383032 229.35506559 13.66718349 228.43778658 13.66033524 227.49271125 C13.64162127 224.40634211 13.64431618 221.32035777 13.64683151 218.23393822 C13.63781949 216.02662161 13.62749366 213.81931004 13.61594772 211.61200523 C13.58828596 205.60822904 13.57908075 199.60454756 13.57309365 193.60071588 C13.56373382 187.33060632 13.53753245 181.06056818 13.51308823 174.79050255 C13.47432694 164.26287091 13.44600146 153.73525095 13.42564011 143.20757103 C13.40463825 132.36346761 13.37737013 121.51940985 13.34165573 110.67534447 C13.33945691 110.00704563 13.33725808 109.33874679 13.33499262 108.65019647 C13.32392317 105.29757607 13.31273032 101.94495609 13.30147612 98.5923363 C13.20853011 70.77393444 13.13689501 42.95551012 13.07920456 15.13701439 C10.67653532 15.0811121 8.27518079 15.04031555 5.87217331 15.00810814 C5.19601974 14.99082664 4.51986618 14.97354515 3.82322311 14.95573997 C-1.84388856 14.89881009 -6.05437304 15.87739649 -9.92079544 20.13701439 Z " fill="#010101" transform="translate(41.92079544067383,-0.13701438903808594)"/>
<path d="M0 0 C1.70768806 -0.01441132 1.70768806 -0.01441132 3.44987488 -0.02911377 C4.68627213 -0.03336365 5.92266937 -0.03761353 7.1965332 -0.04199219 C8.4644722 -0.04769226 9.73241119 -0.05339233 11.03877258 -0.05926514 C13.72803334 -0.06872785 16.41718218 -0.07561764 19.10644531 -0.07910156 C22.53838413 -0.08456788 25.96992251 -0.10855424 29.40173626 -0.13707352 C32.68747127 -0.16028556 35.97322771 -0.1621562 39.2590332 -0.16699219 C41.09844734 -0.18551239 41.09844734 -0.18551239 42.97502136 -0.20440674 C54.30932655 -0.17493629 54.30932655 -0.17493629 59.55981445 3.16113281 C63.08411704 7.55767331 64.06014949 10.48255406 64.06317902 16.08275604 C64.06899278 16.75816588 64.07480654 17.43357572 64.08079648 18.12945253 C64.09538762 20.39131342 64.08151654 22.65208757 64.06774902 24.91394043 C64.07235832 26.55239399 64.07871143 28.19084342 64.086658 29.82928419 C64.10337063 34.33068169 64.09509621 38.83174039 64.08271313 43.33313918 C64.07367287 48.18802303 64.08762728 53.04284811 64.09863281 57.89772034 C64.11643356 67.40803216 64.11257111 76.91821783 64.10098225 86.42853463 C64.09195433 94.15670758 64.09072115 101.88484514 64.09507751 109.61302185 C64.09569045 110.71229499 64.09630338 111.81156812 64.09693488 112.94415256 C64.09821377 115.17719798 64.09951062 117.41024339 64.10082525 119.64328879 C64.11223561 140.59009567 64.09911019 161.53683257 64.07762378 182.48362797 C64.0597524 200.46291594 64.06285638 218.44210061 64.08129883 236.42138672 C64.10269748 257.29245534 64.11113693 278.1634626 64.09884977 299.03454065 C64.09757556 301.25944168 64.09631807 303.48434272 64.09507751 305.70924377 C64.09415186 307.35135014 64.09415186 307.35135014 64.09320751 309.02663037 C64.08975159 316.74688944 64.09558816 324.46710963 64.10499573 332.18736267 C64.11620591 341.59382835 64.11319629 351.00016049 64.09187275 360.40661085 C64.08134916 365.20735232 64.07726281 370.00787101 64.09046936 374.80861092 C64.10237197 379.2017457 64.09586603 383.59445081 64.07455915 387.9875465 C64.07008403 389.57830698 64.07237975 391.16910361 64.0820623 392.75984091 C64.09420552 394.92024845 64.08177461 397.07917939 64.06317902 399.23950958 C64.06252961 400.43997059 64.0618802 401.6404316 64.06121111 402.87727022 C63.45109395 406.87319018 62.07034785 409.02605306 59.55981445 412.16113281 C56.24503079 414.37098859 55.23839293 414.41314155 51.38166332 414.42119503 C50.30302114 414.42826062 49.22437895 414.43532621 48.11305064 414.44260591 C46.92357886 414.44019083 45.73410708 414.43777574 44.5085907 414.43528748 C43.24844314 414.44052415 41.98829558 414.44576083 40.68996173 414.4511562 C37.18521588 414.46536657 33.68055858 414.46699892 30.17578804 414.46655929 C26.39857587 414.46820484 22.62140046 414.48126642 18.84420776 414.49275208 C10.58184991 414.51562166 2.3195177 414.52352478 -5.94286752 414.52857852 C-11.100391 414.53183325 -16.257907 414.53835437 -21.41542625 414.54557991 C-35.69078106 414.56514835 -49.96612891 414.58155114 -64.24149799 414.58445644 C-65.61231371 414.5847378 -65.61231371 414.5847378 -67.01082266 414.58502484 C-68.86353505 414.58539109 -70.71624743 414.58575479 -72.56895981 414.58611595 C-73.94852343 414.58639017 -73.94852343 414.58639017 -75.35595703 414.58666992 C-76.27678663 414.58685047 -77.19761623 414.58703102 -78.14634975 414.58721704 C-93.07014671 414.59075937 -107.99379944 414.61778427 -122.91754637 414.65516781 C-138.23386614 414.69322819 -153.55011431 414.71261375 -168.86648244 414.71291596 C-177.46838066 414.71350104 -186.07010683 414.7220256 -194.67196083 414.75091362 C-201.99610299 414.77539721 -209.32001037 414.78273096 -216.64418236 414.76766609 C-220.38173515 414.76048467 -224.11882404 414.76140681 -227.85632515 414.78407669 C-231.90723001 414.8084123 -235.95707417 414.79406574 -240.00801086 414.77586365 C-241.19079048 414.78906362 -242.3735701 414.80226358 -243.59219152 414.81586355 C-252.45413789 414.72460144 -252.45413789 414.72460144 -256.13247967 411.77310276 C-260.14235847 407.23453352 -260.73174014 403.63755517 -260.75268555 397.66113281 C-260.76944336 396.55769531 -260.78620117 395.45425781 -260.8034668 394.31738281 C-260.40099799 390.82066457 -259.55207699 388.95166563 -257.44018555 386.16113281 C-254.46724979 384.98760554 -252.90148608 385.04031601 -249.81518555 385.84863281 C-247.01376879 387.39678418 -245.87716426 388.28717539 -244.44018555 391.16113281 C-244.44018555 393.80113281 -244.44018555 396.44113281 -244.44018555 399.16113281 C-147.75018555 399.16113281 -51.06018555 399.16113281 48.55981445 399.16113281 C48.55981445 272.77113281 48.55981445 146.38113281 48.55981445 16.16113281 C30.40981445 16.16113281 12.25981445 16.16113281 -6.44018555 16.16113281 C-10.44018555 12.16113281 -10.44018555 12.16113281 -11.44018555 8.66113281 C-11.44018555 5.16113281 -11.44018555 5.16113281 -9.62768555 2.78613281 C-6.18026345 0.22519068 -4.26053168 0.02895169 0 0 Z " fill="#000000" transform="translate(435.440185546875,97.8388671875)"/>
<path d="M0 0 C9.24 0 18.48 0 28 0 C28 126.39 28 252.78 28 383 C18.76 383 9.52 383 0 383 C0 256.61 0 130.22 0 0 Z " fill="#F1E8E4" transform="translate(456,114)"/>
<path d="M0 0 C0.69681885 0.00676758 1.3936377 0.01353516 2.11157227 0.02050781 C3.82186118 0.03809433 5.53204991 0.06499477 7.2421875 0.09375 C7.24365406 1.24449886 7.24512062 2.39524773 7.24663162 3.58086777 C7.28232032 30.88675198 7.33854219 58.19252972 7.42010845 85.49831723 C7.43012612 88.85792719 7.43997021 92.21753765 7.44970703 95.57714844 C7.4516484 96.2459969 7.45358978 96.91484537 7.45558998 97.60396197 C7.48662569 108.43915309 7.503595 119.27432301 7.51538172 130.10955021 C7.52778517 141.2244285 7.55556639 152.33920383 7.59680057 163.45401406 C7.61947676 169.69836181 7.63509449 175.94255047 7.63407135 182.18694305 C7.63332838 188.06057523 7.65113296 193.93385491 7.68335533 199.80739594 C7.69189592 201.96652622 7.69357628 204.12569586 7.68799019 206.28483582 C7.68139133 209.22658227 7.69917211 212.16719361 7.72320557 215.10882568 C7.71544515 215.96874674 7.70768473 216.82866779 7.69968915 217.71464705 C7.75592549 222.51374818 7.75592549 222.51374818 10.14962387 226.59280777 C12.16113139 228.11901955 12.16113139 228.11901955 14.2421875 229.09375 C14.38734427 232.19742497 14.47619603 235.30023027 14.5546875 238.40625 C14.59658203 239.28732422 14.63847656 240.16839844 14.68164062 241.07617188 C14.72794471 243.51176685 14.72528422 245.70481652 14.2421875 248.09375 C11.78515625 250.07421875 11.78515625 250.07421875 9.2421875 251.09375 C7.57340307 254.43131887 8.06136985 258.18601197 8.03686523 261.85791016 C8.02696564 262.76528427 8.01706604 263.67265839 8.00686646 264.60752869 C7.97520141 267.6159298 7.95047426 270.62434673 7.92578125 273.6328125 C7.90521604 275.71504128 7.88421969 277.79726584 7.86280823 279.87948608 C7.8075428 285.36707145 7.75815326 290.85469476 7.70996094 296.34234619 C7.65977853 301.93920276 7.60407547 307.53600404 7.54882812 313.1328125 C7.44119188 324.11974446 7.33975907 335.10672437 7.2421875 346.09375 C6.21480469 346.11953125 5.18742187 346.1453125 4.12890625 346.171875 C2.72912912 346.22824186 1.32939115 346.28558707 -0.0703125 346.34375 C-0.74126953 346.35792969 -1.41222656 346.37210937 -2.10351562 346.38671875 C-6.59503501 346.5975882 -10.32707318 347.54524501 -14.54370117 349.13183594 C-15.52336349 349.49758728 -16.50302582 349.86333862 -17.51237488 350.24017334 C-18.6238665 350.66269379 -18.6238665 350.66269379 -19.7578125 351.09375 C-19.87224382 308.04336247 -19.96035424 264.99299248 -20.01313915 221.94248301 C-20.01939272 216.86058087 -20.02586433 211.77867903 -20.0324707 206.69677734 C-20.03378226 205.68505742 -20.03509381 204.6733375 -20.0364451 203.63095939 C-20.05820474 187.24690605 -20.09762936 170.86294038 -20.14357648 154.47893906 C-20.19032555 137.66884143 -20.21810462 120.85878973 -20.22825497 104.04862976 C-20.23511734 93.67488758 -20.25679547 83.30139319 -20.29739483 72.92772728 C-20.32381405 65.81519122 -20.33181535 58.70278337 -20.32531939 51.5902018 C-20.32211521 47.48585065 -20.3270447 43.38193269 -20.35383987 39.27765846 C-20.37820463 35.51818406 -20.37937984 31.75943337 -20.36230697 27.99992537 C-20.35920012 25.99960164 -20.38073646 23.99928618 -20.40321904 21.99908638 C-20.34310322 14.77208122 -19.69682933 9.59657777 -14.7578125 4.09375 C-9.99193166 -0.05049421 -6.16310342 -0.11376691 0 0 Z " fill="#C66C57" transform="translate(47.7578125,14.90625)"/>
<path d="M0 0 C0 83.82 0 167.64 0 254 C-9.57 254 -19.14 254 -29 254 C-29.09042051 223.14538604 -29.16203571 192.29081457 -29.20426132 161.4361003 C-29.20926416 157.793663 -29.21444145 154.15122596 -29.21972656 150.50878906 C-29.2207758 149.78364354 -29.22182505 149.05849801 -29.22290608 148.31137837 C-29.24031271 136.56894487 -29.27185179 124.82658968 -29.30861118 113.08420263 C-29.34601349 101.03598633 -29.36823434 88.98781105 -29.37635398 76.93953907 C-29.38135061 70.17194857 -29.39337119 63.40452139 -29.42292023 56.63698959 C-29.45003578 50.26932573 -29.45845267 43.90191297 -29.45243073 37.53419685 C-29.45353268 35.19527002 -29.46150924 32.85633493 -29.4768219 30.51745796 C-29.49668878 27.32691101 -29.49195057 24.13731525 -29.48101807 20.94674683 C-29.49266943 20.01872344 -29.5043208 19.09070005 -29.51632524 18.13455474 C-29.46481335 12.58240599 -28.7139986 9.39882136 -25 5 C-16.83355888 -2.36971516 -13.10151421 0 0 0 Z " fill="#863E2D" transform="translate(176,107)"/>
<path d="M0 0 C1.77225197 -0.01418472 1.77225197 -0.01418472 3.58030701 -0.02865601 C4.84810501 -0.02258331 6.11590302 -0.01651062 7.42211914 -0.01025391 C8.73257706 -0.01312408 10.04303497 -0.01599426 11.39320374 -0.01895142 C14.16296027 -0.02336551 16.93242583 -0.01697471 19.70214844 -0.00292969 C23.24065595 0.0141454 26.77847989 0.00432664 30.31696224 -0.01364708 C33.70623494 -0.02713876 37.09532706 -0.01767175 40.48461914 -0.01025391 C41.75039291 -0.0163266 43.01616669 -0.02239929 44.32029724 -0.02865601 C45.50495071 -0.01919952 46.68960419 -0.00974304 47.91015625 0 C48.94764511 0.00238678 49.98513397 0.00477356 51.05406189 0.00723267 C54.59850237 0.46252206 56.97228731 1.54033013 60.01977539 3.38818359 C63.65717767 8.37178876 64.52939442 11.79548841 64.55102539 18.05224609 C64.55676575 19.1231398 64.55676575 19.1231398 64.56262207 20.21566772 C64.56532864 21.71996478 64.55805571 23.22430991 64.54125977 24.72851562 C64.52001895 26.98728319 64.54100057 29.242801 64.56665039 31.50146484 C64.60048637 49.2943038 59.24740564 62.47710554 46.70727539 75.07568359 C44.17250121 77.54353507 41.60150085 79.96965827 39.01977539 82.38818359 C38.16512695 83.21833984 37.31047852 84.04849609 36.42993164 84.90380859 C32.70159351 88.22088338 29.65748647 89.88691249 24.64477539 90.38818359 C18.04743937 89.89406966 14.15652985 86.35886352 9.55444336 81.87304688 C7.89095495 80.26354377 6.17893759 78.71688574 4.46118164 77.16552734 C-6.48666016 67.03308903 -14.1319874 55.82798103 -15.27075195 40.4699707 C-15.29697574 39.11865925 -15.31174143 37.767086 -15.31616211 36.41552734 C-15.32281891 35.68878311 -15.32947571 34.96203888 -15.33633423 34.21327209 C-15.34638006 32.68981428 -15.35115378 31.16631317 -15.35083008 29.64282227 C-15.35522138 27.32738622 -15.3916718 25.01383283 -15.42944336 22.69873047 C-15.43530996 21.20850252 -15.4392804 19.71826565 -15.44116211 18.22802734 C-15.45553314 17.54554428 -15.46990417 16.86306122 -15.48471069 16.15989685 C-15.43356989 10.72143641 -14.07228208 7.71752684 -10.98022461 3.38818359 C-7.24840448 0.63231503 -4.60190011 0.01059496 0 0 Z " fill="#040303" transform="translate(246.980224609375,371.61181640625)"/>
<path d="M0 0 C4.42426416 2.94950944 4.96102531 7.0874646 6 12 C6.55013134 14.97604982 7.01929608 17.96095949 7.47265625 20.953125 C7.6646183 22.18709015 7.6646183 22.18709015 7.86045837 23.44598389 C8.26460997 26.04679957 8.66389578 28.64832884 9.0625 31.25 C9.46532663 33.86584487 9.8692315 36.48151191 10.2752533 39.09686279 C10.52658078 40.71703582 10.77598576 42.33750856 11.02320862 43.95831299 C11.54801055 47.35246174 12.13157583 50.67778905 13 54 C13.88751953 52.46279297 13.88751953 52.46279297 14.79296875 50.89453125 C15.59074487 49.53361904 16.38894453 48.17295505 17.1875 46.8125 C17.57486328 46.13896484 17.96222656 45.46542969 18.36132812 44.77148438 C20.81087153 40.6214315 23.30254249 37.17702977 27 34 C30 33.375 30 33.375 33 34 C37.32527152 37.71647717 40.00843809 41.93688487 42.8125 46.8125 C43.42254883 47.85180664 43.42254883 47.85180664 44.04492188 48.91210938 C45.03677289 50.60409052 46.01935598 52.30149891 47 54 C47.75562763 50.16775516 48.50383667 46.33409838 49.25 42.5 C49.59115845 40.75662354 49.59115845 40.75662354 49.93920898 38.97802734 C51.08983127 33.02153327 52.17171557 27.06859656 53.08203125 21.0703125 C53.33194824 19.44319336 53.33194824 19.44319336 53.58691406 17.78320312 C53.89856055 15.71366569 54.19659943 13.6420229 54.47949219 11.56835938 C55.52730851 4.65419726 55.52730851 4.65419726 57.90234375 1.3671875 C61.074365 -0.7002379 63.30876843 -0.5273188 67 0 C69.22657776 1.65910339 69.22657776 1.65910339 71 4 C71.24205017 6.78681946 71.24205017 6.78681946 70.87475586 9.9543457 C70.74656464 11.11028229 70.61837341 12.26621887 70.48629761 13.45718384 C69.73944181 18.89824039 68.93102814 24.31700843 68.00390625 29.73046875 C67.81030014 30.88694412 67.61669403 32.04341949 67.41722107 33.23493958 C67.01054765 35.65797018 66.60118082 38.08055017 66.18920898 40.50268555 C65.56246642 44.18769742 64.94358485 47.87396149 64.32617188 51.56054688 C63.92753707 53.92976389 63.52846352 56.29890713 63.12890625 58.66796875 C62.94550186 59.75675827 62.76209747 60.84554779 62.57313538 61.96733093 C61.74124207 66.85309605 60.88948706 71.73541411 59.97631836 76.60668945 C59.83020615 77.39308304 59.68409393 78.17947662 59.53355408 78.98970032 C58.73610905 81.99427578 57.64117817 83.38594667 55 85 C52.0625 85.5625 52.0625 85.5625 49 85 C43.59646965 80.65489312 40.67858801 74.64581886 37.3125 68.6875 C36.16954737 66.66671915 35.02016232 64.64955808 33.86328125 62.63671875 C33.36094971 61.74686279 32.85861816 60.85700684 32.34106445 59.94018555 C31.89851318 59.29992432 31.45596191 58.65966309 31 58 C30.34 58 29.68 58 29 58 C28.48614746 58.91495239 28.48614746 58.91495239 27.96191406 59.84838867 C26.39588147 62.63071362 24.82301474 65.40911698 23.25 68.1875 C22.71117187 69.14720703 22.17234375 70.10691406 21.6171875 71.09570312 C14.80706522 83.09646739 14.80706522 83.09646739 11 85 C8.125 85.375 8.125 85.375 5 85 C-0.02596268 80.5940615 -0.31270137 74.67000523 -1.2890625 68.41015625 C-1.47842377 67.27404404 -1.66778503 66.13793182 -1.86288452 64.96739197 C-2.46466607 61.33462707 -3.04492839 57.69878777 -3.625 54.0625 C-4.02206303 51.65016399 -4.42048656 49.23805149 -4.8203125 46.82617188 C-11.19564622 8.15749088 -11.19564622 8.15749088 -10 3 C-6.74855818 -0.08541075 -4.45483612 -0.6496636 0 0 Z " fill="#040303" transform="translate(371,191)"/>
<path d="M0 0 C1.23692788 -0.00807831 1.23692788 -0.00807831 2.49884421 -0.01631981 C5.27188642 -0.03066819 8.04445589 -0.02347882 10.81752014 -0.01637268 C12.80159898 -0.02207266 14.78567453 -0.02903547 16.76974487 -0.03717041 C22.16640494 -0.05515818 27.56290292 -0.05392288 32.959584 -0.04822803 C37.46029895 -0.04514424 41.96098239 -0.05121958 46.46169287 -0.05726677 C57.07707325 -0.07132888 67.69237318 -0.06973673 78.30775452 -0.05836487 C89.26924427 -0.04688192 100.23048941 -0.06095855 111.19194692 -0.08776134 C120.59413281 -0.10989302 129.99624177 -0.11656144 139.39845186 -0.11068493 C145.0179111 -0.10730809 150.63721352 -0.10977858 156.25665092 -0.12693596 C161.54016312 -0.14236265 166.823312 -0.13849712 172.10680962 -0.11963081 C174.04826282 -0.11593305 175.9897427 -0.11908778 177.93117142 -0.1295166 C180.5771776 -0.14264726 183.22196691 -0.13125007 185.86791992 -0.11352539 C187.02633067 -0.1279329 187.02633067 -0.1279329 188.20814365 -0.14263147 C191.69206248 -0.09445717 193.6432871 0.12403109 196.47429752 2.23150539 C198.55583261 5.17812303 198.58616659 6.85539122 197.99745178 10.38768005 C196.13035268 12.69043562 194.64097437 14.06591876 191.99745178 15.38768005 C189.41420759 15.4919783 186.85753387 15.53547689 184.27374268 15.53485107 C183.06365609 15.54036611 183.06365609 15.54036611 181.82912332 15.54599255 C179.11073102 15.55705505 176.39237692 15.56087755 173.67396545 15.56468201 C171.73106768 15.57094467 169.78817112 15.57759129 167.84527588 15.58459473 C162.55597525 15.60202166 157.26668368 15.61256089 151.97736144 15.62080026 C148.67502354 15.62594634 145.37268846 15.63202222 142.07035255 15.63831139 C131.7445636 15.65736734 121.41878182 15.67159817 111.09297866 15.67992336 C99.16140806 15.68970124 87.23002271 15.71603351 75.29851741 15.75642425 C66.08403621 15.78655024 56.86960822 15.80138885 47.65507871 15.80470437 C42.14789039 15.80705869 36.64089989 15.8160688 31.13376427 15.84116554 C25.95370914 15.86439004 20.77398286 15.86870216 15.59388924 15.85840416 C13.69154646 15.85790733 11.78918781 15.86427083 9.88689423 15.87796021 C7.29156964 15.89559337 4.69743621 15.88861575 2.10211182 15.87542725 C0.97039284 15.89188112 0.97039284 15.89188112 -0.18418914 15.90866739 C-3.84481883 15.86369325 -5.85925827 15.47952317 -8.97198009 13.48439312 C-11.00254822 11.38768005 -11.00254822 11.38768005 -11.59629822 9.3525238 C-11.34707243 3.96301618 -11.34707243 3.96301618 -9.97145748 1.66581631 C-6.86001518 -0.35400618 -3.5907399 -0.02786363 0 0 Z " fill="#070707" transform="translate(244.00254821777344,302.61231994628906)"/>
<path d="M0 0 C4.32326033 -0.0992011 8.64591024 -0.17162265 12.9699707 -0.21972656 C14.43948921 -0.23978825 15.90892841 -0.26704478 17.37817383 -0.30175781 C19.49580487 -0.35052141 21.61237687 -0.37302161 23.73046875 -0.390625 C25.00301514 -0.41157227 26.27556152 -0.43251953 27.58666992 -0.45410156 C31.74020857 0.09847564 33.1344873 0.96562646 36 4 C36.47953267 6.80581072 36.63614154 8.99841029 36.56762695 11.79785156 C36.56822963 12.59130856 36.5688323 13.38476555 36.56945324 14.20226669 C36.56572684 16.76577074 36.52768462 19.32744711 36.48828125 21.890625 C36.48092793 23.47508876 36.4758282 25.05956463 36.47302246 26.64404297 C36.44682988 32.51288079 36.37702335 38.38145843 36.3125 44.25 C36.1578125 63.92625 36.1578125 63.92625 36 84 C-8.55 84 -53.1 84 -99 84 C-99 83.67 -99 83.34 -99 83 C-65.67 83 -32.34 83 2 83 C1.855625 70.0475 1.71125 57.095 1.5625 43.75 C1.49784546 37.61809082 1.49784546 37.61809082 1.43188477 31.36230469 C1.38862578 27.69399261 1.38862578 27.69399261 1.34410095 24.0256958 C1.3248955 22.39339123 1.30756963 20.76106388 1.29173279 19.12872314 C1.26736092 16.65442621 1.23700276 14.1802674 1.20532227 11.70605469 C1.19666688 10.61749239 1.19666688 10.61749239 1.18783665 9.50693893 C1.13954067 6.20204936 1.01451816 3.16198432 0 0 Z " fill="#873E2D" transform="translate(286,15)"/>
<path d="M0 0 C4.00838064 3.37569172 5.87208125 6.34792346 7.55541992 11.27148438 C7.98904343 12.51627563 8.42266693 13.76106689 8.86943054 15.0435791 C9.32338212 16.39354457 9.77705481 17.74360386 10.23046875 19.09375 C10.71046884 20.48755234 11.19179869 21.88089737 11.6743927 23.27380371 C12.93746295 26.93033081 14.18319991 30.59252733 15.42510986 34.25628662 C16.68958116 37.97762432 17.9690994 41.69377394 19.24804688 45.41015625 C20.68638766 49.59048128 22.12339788 53.77118913 23.54740906 57.9564209 C23.97157608 59.20121216 24.3957431 60.44600342 24.83276367 61.72851562 C25.20406906 62.82151978 25.57537445 63.91452393 25.95793152 65.04064941 C26.63474135 66.96270886 27.35169695 68.87126578 28.11445618 70.76086426 C29.56242462 74.4221149 29.37432894 77.06954614 29 81 C27.375 83.5 27.375 83.5 25 85 C22 85.5 22 85.5 19 85 C15.57302979 82.18779162 14.16301913 79.53555632 12.75 75.375 C12.41484375 74.41335938 12.0796875 73.45171875 11.734375 72.4609375 C11 70 11 70 11 68 C1.76 68 -7.48 68 -17 68 C-17.33 69.65 -17.66 71.3 -18 73 C-18.5806482 74.74456013 -19.20646207 76.47469546 -19.875 78.1875 C-20.36613281 79.47720703 -20.36613281 79.47720703 -20.8671875 80.79296875 C-22 83 -22 83 -25 85 C-28.5772533 85.45667063 -30.33458305 85.43777431 -33.375 83.4375 C-35.58853946 80.11719081 -35.22986172 77.94913965 -35 74 C-34.23640442 70.96113586 -34.23640442 70.96113586 -33.15161133 67.88793945 C-32.747314 66.72595535 -32.34301666 65.56397125 -31.9264679 64.36677551 C-31.4828038 63.12812241 -31.03913971 61.8894693 -30.58203125 60.61328125 C-30.12232913 59.30711927 -29.6634976 58.0006506 -29.20549011 56.69389343 C-28.24444695 53.9589806 -27.27635438 51.22671115 -26.30249023 48.49633789 C-25.06679111 45.03162766 -23.84345029 41.56272899 -22.62483692 38.09197712 C-21.44839374 34.74332262 -20.26532545 31.39701955 -19.08203125 28.05078125 C-18.64848831 26.8222493 -18.21494537 25.59371735 -17.76826477 24.32795715 C-15.72490724 18.59885988 -13.62067137 12.89796676 -11.36987305 7.24682617 C-10.98647263 6.28306564 -10.6030722 5.31930511 -10.20805359 4.32633972 C-7.85397634 -0.20688914 -4.73377961 -0.66272914 0 0 Z " fill="#040404" transform="translate(332,191)"/>
<path d="M0 0 C16.17 0 32.34 0 49 0 C49.0825 4.558125 49.165 9.11625 49.25 13.8125 C49.28641602 15.22635986 49.32283203 16.64021973 49.36035156 18.09692383 C49.44822183 28.21263422 48.26540912 37.51543846 40.9375 45.0625 C40.1640625 45.86558594 39.390625 46.66867187 38.59375 47.49609375 C34.15946197 51.77678446 29.63071155 55.93189826 25 60 C13.21025082 51.99378064 4.0089311 42.91984071 0 29 C-0.22705078 25.65673828 -0.22705078 25.65673828 -0.1953125 22.0703125 C-0.19031738 20.90773926 -0.18532227 19.74516602 -0.18017578 18.54736328 C-0.16196777 17.0879834 -0.14375977 15.62860352 -0.125 14.125 C-0.08375 9.46375 -0.0425 4.8025 0 0 Z " fill="#E8B564" transform="translate(247,386)"/>
<path d="M0 0 C0.91800385 -0.00073013 1.83600769 -0.00146027 2.78182983 -0.00221252 C5.79071895 0.00124752 8.79802479 0.04003345 11.80664062 0.0793457 C13.90270136 0.08867946 15.99877306 0.09579291 18.09484863 0.1007843 C23.59255466 0.11980965 29.08959272 0.16887233 34.58703613 0.2243042 C40.20441656 0.27559288 45.82190568 0.29831888 51.43945312 0.32348633 C62.44760525 0.37699534 73.4550877 0.46489505 84.46289062 0.56762695 C84.46289062 11.12762695 84.46289062 21.68762695 84.46289062 32.56762695 C76.87289062 32.56762695 69.28289062 32.56762695 61.46289062 32.56762695 C61.13289063 29.26762695 60.80289063 25.96762695 60.46289062 22.56762695 C58.30843873 19.04868886 57.37313915 17.87104313 53.46289062 16.56762695 C51.72591871 16.45517366 49.98507346 16.39862932 48.24462891 16.37475586 C47.17987335 16.35869293 46.1151178 16.34263 45.01809692 16.32608032 C40.15871855 16.28161131 35.29947554 16.24058389 30.43994141 16.2175293 C27.8753961 16.20095029 25.31089735 16.17363519 22.74658203 16.13549805 C19.05021175 16.08081098 15.35492312 16.05886858 11.65820312 16.04418945 C10.51223663 16.02152008 9.36627014 15.99885071 8.18557739 15.97549438 C1.77533079 15.93838155 1.77533079 15.93838155 -3.75512695 18.90576172 C-5.87625711 22.0742344 -6.22468529 24.09076312 -6.34960938 27.88012695 C-6.42115234 29.48307617 -6.42115234 29.48307617 -6.49414062 31.1184082 C-6.51541016 32.33077148 -6.51541016 32.33077148 -6.53710938 33.56762695 C-11.74955686 33.19530928 -15.11891924 31.46980861 -18.53710938 27.56762695 C-21.33485177 22.62494871 -22.49554884 18.15301559 -21.53710938 12.56762695 C-17.56839147 2.81119544 -10.08748624 -0.21328504 0 0 Z " fill="#FCFCFC" transform="translate(91.537109375,375.432373046875)"/>
<path d="M0 0 C1.68875999 -0.01485695 1.68875999 -0.01485695 3.41163635 -0.03001404 C4.64756531 -0.02551239 5.88349426 -0.02101074 7.15687561 -0.01637268 C8.45786697 -0.02323593 9.75885834 -0.03009918 11.09927368 -0.03717041 C14.66956989 -0.05513708 18.23962081 -0.05392689 21.80994868 -0.04822803 C24.78964882 -0.04514103 27.7693015 -0.05122319 30.74899489 -0.05726677 C37.77822432 -0.07132206 44.80733224 -0.06974258 51.83656311 -0.05836487 C59.08995302 -0.04688381 66.34297319 -0.06095654 73.59631437 -0.08776134 C79.82231469 -0.10990874 86.04819886 -0.11655789 92.27423579 -0.11068493 C95.99341944 -0.10731165 99.71236609 -0.10975462 103.43151665 -0.12693596 C107.57848954 -0.14525689 111.72474177 -0.13122806 115.87171936 -0.11402893 C117.10562408 -0.1236969 118.33952881 -0.13336487 119.61082458 -0.14332581 C120.73948441 -0.13349167 121.86814423 -0.12365753 123.03100586 -0.11352539 C124.01158431 -0.11331611 124.99216276 -0.11310682 126.00245571 -0.1128912 C129.32700449 0.53300375 130.51764734 1.74913852 132.57899475 4.38768005 C133.07899475 7.38768005 133.07899475 7.38768005 132.57899475 10.38768005 C130.71189565 12.69043562 129.22251734 14.06591876 126.57899475 15.38768005 C124.86724728 15.48923322 123.15156853 15.52714014 121.43682861 15.53485107 C120.34746506 15.54200638 119.2581015 15.54916168 118.13572693 15.55653381 C116.33490158 15.56056717 116.33490158 15.56056717 114.49769592 15.56468201 C112.60735878 15.5745388 112.60735878 15.5745388 110.67883301 15.58459473 C107.21592261 15.60200807 103.75302602 15.6125574 100.29008269 15.62080026 C98.12681002 15.62594977 95.96354163 15.63202552 93.80027199 15.63831139 C87.03263361 15.65736451 80.26500615 15.67159532 73.4973461 15.67992336 C65.68384836 15.68969694 57.87063383 15.71601882 50.0572359 15.75642425 C44.01894838 15.78657903 37.98074208 15.80139161 31.94238073 15.80470437 C28.33545423 15.80705563 24.72883024 15.81602525 21.12198448 15.84116554 C17.09730054 15.86876478 13.07324969 15.86461716 9.04847717 15.85765076 C7.85399963 15.87046082 6.65952209 15.88327087 5.42884827 15.89646912 C-2.64077988 15.84542808 -2.64077988 15.84542808 -6.66323853 13.48550415 C-8.58411057 11.19302039 -9.05742969 10.27535856 -8.92100525 7.32518005 C-8.42100525 3.38768005 -8.42100525 3.38768005 -7.22856808 1.66581631 C-4.74040633 -0.09357467 -3.03593759 0.00752602 0 0 Z " fill="#070707" transform="translate(309.42100524902344,338.61231994628906)"/>
<path d="M0 0 C1.81784248 -0.01292336 1.81784248 -0.01292336 3.67240906 -0.02610779 C6.98880001 -0.0449017 10.30419059 -0.0456696 13.62055779 -0.03678632 C16.39151121 -0.03166988 19.16237534 -0.03897416 21.93331957 -0.04625839 C28.47076278 -0.06324796 35.0079725 -0.05970072 41.54541016 -0.04296875 C48.2854161 -0.02604123 55.02477469 -0.04189197 61.76470995 -0.07419163 C67.55682171 -0.10089542 73.34873205 -0.1081617 79.14089918 -0.09967655 C82.59801067 -0.09475034 86.05473255 -0.09694581 89.51179504 -0.11746407 C93.36619386 -0.13924658 97.21981315 -0.12041354 101.07421875 -0.09765625 C102.78873482 -0.11519455 102.78873482 -0.11519455 104.53788757 -0.13308716 C112.25219951 -0.04024424 112.25219951 -0.04024424 116.24963379 2.88148499 C118.4416414 6.13362536 118.77329614 7.6889164 118.03710938 11.53344727 C116.00381861 14.10203969 114.80537226 15.37665057 111.55706787 16.03960514 C110.15451752 16.04381552 110.15451752 16.04381552 108.72363281 16.04811096 C107.10853821 16.06719765 107.10853821 16.06719765 105.46081543 16.08666992 C104.28458618 16.08014404 103.10835693 16.07361816 101.89648438 16.06689453 C100.03256042 16.07981789 100.03256042 16.07981789 98.13098145 16.09300232 C94.72576786 16.11181754 91.32152696 16.11255666 87.91633606 16.10368085 C85.07326477 16.09857036 82.23028077 16.10586387 79.38721848 16.11315292 C72.68059406 16.13015258 65.97419717 16.12658511 59.26757812 16.10986328 C52.34864762 16.09293521 45.4303477 16.10878504 38.51148605 16.14108616 C32.5699433 16.1677737 26.62859695 16.17506061 20.68700027 16.16657108 C17.13880669 16.16164008 13.59099268 16.1638663 10.04284668 16.1843586 C6.08755753 16.20610911 2.13303005 16.1873264 -1.82226562 16.16455078 C-2.99849487 16.17624298 -4.17472412 16.18793518 -5.38659668 16.19998169 C-13.28983969 16.10710107 -13.28983969 16.10710107 -16.71777344 13.18540955 C-17.96289062 10.53344727 -17.96289062 10.53344727 -18.02539062 7.47094727 C-14.97286777 -0.96838062 -7.66005228 -0.04373413 0 0 Z " fill="#080707" transform="translate(286.962890625,145.466552734375)"/>
<path d="M0 0 C3.66156082 0.70114994 4.6644591 1.63999736 6.9375 4.5625 C7.41851807 7.5491333 7.41851807 7.5491333 7.39160156 11.07519531 C7.39218567 11.71951508 7.39276978 12.36383484 7.39337158 13.02767944 C7.39059334 15.14921677 7.35951774 17.26933436 7.328125 19.390625 C7.32066159 20.86463656 7.31496912 22.33865806 7.31097412 23.81268311 C7.2957254 27.68615267 7.25645107 31.55901916 7.2121582 35.43225098 C7.17118852 39.38704267 7.15295954 43.34193212 7.1328125 47.296875 C7.08995528 55.05235782 7.02171422 62.8073443 6.9375 70.5625 C8.53404419 70.5310791 8.53404419 70.5310791 10.1628418 70.49902344 C14.12299066 70.42646038 18.0830811 70.38064149 22.04370117 70.34277344 C23.75571586 70.32269495 25.46766228 70.29542608 27.17944336 70.26074219 C29.64454008 70.21205599 32.1087279 70.18949427 34.57421875 70.171875 C35.33586838 70.15122986 36.09751801 70.13058472 36.88224792 70.10931396 C40.56722502 70.10776848 42.74511796 70.44622497 45.92504883 72.36816406 C47.9375 74.5625 47.9375 74.5625 48.5 78.0625 C47.9375 81.5625 47.9375 81.5625 46.55834961 83.74584961 C42.43605661 86.60323035 38.34400396 86.15342509 33.44140625 86.12890625 C32.4157103 86.13510483 31.39001434 86.14130341 30.33323669 86.14768982 C28.16544544 86.15478929 25.99759968 86.1516118 23.82983398 86.13891602 C20.5150904 86.12506307 17.20317645 86.15910562 13.88867188 86.19726562 C11.78124931 86.19821695 9.67382321 86.19635729 7.56640625 86.19140625 C6.57669327 86.20466446 5.58698029 86.21792267 4.567276 86.23158264 C3.17574562 86.21278297 3.17574562 86.21278297 1.75610352 86.19360352 C0.94432144 86.19264175 0.13253937 86.19167999 -0.70384216 86.19068909 C-4.32372505 85.22659379 -5.80659776 83.50556599 -8.0625 80.5625 C-8.69741821 77.14758301 -8.69741821 77.14758301 -8.70947266 73.18945312 C-8.71823425 72.46523666 -8.72699585 71.7410202 -8.73602295 70.99485779 C-8.75795752 68.61053842 -8.74348755 66.22808687 -8.7265625 63.84375 C-8.7299324 62.18135219 -8.73478647 60.51895678 -8.74105835 58.85656738 C-8.74842155 55.37630707 -8.73774267 51.89668938 -8.71435547 48.41650391 C-8.6858672 43.96063334 -8.70227425 39.50626853 -8.73221779 35.05045319 C-8.7503062 31.6188019 -8.74452584 28.18750625 -8.73157883 24.75584412 C-8.72824904 23.11323365 -8.73231691 21.47059065 -8.74397659 19.82801819 C-8.75671185 17.52966096 -8.73727609 15.23372426 -8.70947266 12.93554688 C-8.70549469 11.62936401 -8.70151672 10.32318115 -8.69741821 8.97741699 C-7.73930872 3.82421093 -5.19786731 0.95471032 0 0 Z " fill="#050505" transform="translate(240.0625,190.4375)"/>
<path d="M0 0 C1.07680527 -0.00700928 2.15361053 -0.01401855 3.26304626 -0.02124023 C6.82601635 -0.0388598 10.38819357 -0.02718275 13.95117188 -0.01367188 C16.42452141 -0.01636563 18.89786992 -0.02024708 21.37121582 -0.02526855 C26.55633623 -0.031169 31.74118113 -0.02258265 36.92626953 -0.00390625 C43.57809143 0.01888337 50.22899875 0.00576344 56.88083649 -0.01819611 C61.98859536 -0.03263902 67.09620078 -0.02805491 72.20396423 -0.01768494 C74.65681535 -0.01501351 77.10968032 -0.01830196 79.56251526 -0.02760315 C82.98866772 -0.03774345 86.41376968 -0.02230144 89.83984375 0 C90.85711044 -0.00809692 91.87437714 -0.01619385 92.92247009 -0.02453613 C99.76732155 0.05815211 99.76732155 0.05815211 103.04602051 2.36633301 C104.96607497 5.3727408 105.06326055 7.01495646 104.41992188 10.51757812 C102.38989323 13.37356301 100.77191217 15.23058486 97.24978638 15.97824287 C94.49434969 16.16306219 91.77912344 16.18149359 89.01757812 16.14868164 C87.44845169 16.1594146 87.44845169 16.1594146 85.84762573 16.17036438 C82.39211264 16.18726361 78.93789459 16.16784025 75.48242188 16.14648438 C73.08015841 16.14731295 70.677895 16.14977191 68.27563477 16.15379333 C63.24185107 16.1566522 58.20851211 16.14194067 53.17480469 16.11450195 C46.72157476 16.08041978 40.26914018 16.08643697 33.81587219 16.10516453 C28.85560475 16.11573171 23.89552245 16.10679909 18.93527222 16.09177971 C16.55582224 16.08659542 14.17635295 16.08708267 11.79690552 16.09332466 C8.47160242 16.09877319 5.1474389 16.07841158 1.82226562 16.05102539 C0.83821747 16.05755127 -0.14583069 16.06407715 -1.15969849 16.07080078 C-5.42643976 16.01103263 -7.92833417 15.90108914 -11.66381836 13.70298767 C-14.33619985 10.65525472 -14.65179356 8.53364262 -14.58007812 4.51757812 C-11.19570728 -0.99360164 -5.77790292 -0.04598916 0 0 Z " fill="#080707" transform="translate(337.580078125,446.482421875)"/>
<path d="M0 0 C1.07680527 -0.00700928 2.15361053 -0.01401855 3.26304626 -0.02124023 C6.82601635 -0.0388598 10.38819357 -0.02718275 13.95117188 -0.01367188 C16.42452141 -0.01636563 18.89786992 -0.02024708 21.37121582 -0.02526855 C26.55633623 -0.031169 31.74118113 -0.02258265 36.92626953 -0.00390625 C43.57809143 0.01888337 50.22899875 0.00576344 56.88083649 -0.01819611 C61.98859536 -0.03263902 67.09620078 -0.02805491 72.20396423 -0.01768494 C74.65681535 -0.01501351 77.10968032 -0.01830196 79.56251526 -0.02760315 C82.98866772 -0.03774345 86.41376968 -0.02230144 89.83984375 0 C90.85711044 -0.00809692 91.87437714 -0.01619385 92.92247009 -0.02453613 C99.76492571 0.05812317 99.76492571 0.05812317 103.04992676 2.36242676 C104.93517506 5.32812744 104.99472329 7.06876961 104.41992188 10.51757812 C102.55282277 12.82033369 101.06344446 14.19581683 98.41992188 15.51757812 C96.99960518 15.61774504 95.57474777 15.65695544 94.15092468 15.66474915 C93.25508667 15.67190445 92.35924866 15.67905975 91.43626404 15.68643188 C90.45078079 15.68912079 89.46529755 15.69180969 88.44995117 15.69458008 C87.41405853 15.70115128 86.37816589 15.70772247 85.31088257 15.7144928 C81.87196791 15.73425494 78.43309697 15.74589443 74.99414062 15.75585938 C73.82173136 15.7599349 72.64932209 15.76401043 71.44138527 15.76820946 C65.23704834 15.78908186 59.03273361 15.80337897 52.82836914 15.81274414 C46.41214232 15.82381571 39.99626162 15.85822128 33.58015728 15.89791584 C28.65340011 15.92402962 23.72672608 15.9324313 18.79990578 15.93602562 C16.43438184 15.94090451 14.06886194 15.95255526 11.70340538 15.97106361 C8.39468126 15.99534471 5.08686164 15.99450994 1.77807617 15.98754883 C0.79866562 16.00035889 -0.18074493 16.01316895 -1.18983459 16.02636719 C-5.45287342 15.99363265 -7.9263365 15.90176769 -11.66105652 13.70695496 C-14.33461581 10.65673981 -14.65184578 8.53656698 -14.58007812 4.51757812 C-11.19570728 -0.99360164 -5.77790292 -0.04598916 0 0 Z " fill="#070707" transform="translate(337.580078125,374.482421875)"/>
<path d="M0 0 C12.54 0 25.08 0 38 0 C38 14.52 38 29.04 38 44 C29 39 29 39 25.4375 36.6875 C21.35796992 34.68482159 18.37210892 33.73612986 14 35 C10.6947126 36.91249334 7.62422556 39.00056465 4.5390625 41.25 C2 43 2 43 0 43 C0 28.81 0 14.62 0 0 Z " fill="#FD7C42" transform="translate(100,406)"/>
<path d="M0 0 C16.17 0 32.34 0 49 0 C49.0825 4.558125 49.165 9.11625 49.25 13.8125 C49.28641602 15.22635986 49.32283203 16.64021973 49.36035156 18.09692383 C49.44822183 28.21263422 48.26540912 37.51543846 40.9375 45.0625 C40.1640625 45.86558594 39.390625 46.66867187 38.59375 47.49609375 C34.15946197 51.77678446 29.63071155 55.93189826 25 60 C23.74387028 59.11278216 22.49539248 58.21472776 21.25 57.3125 C20.55390625 56.81363281 19.8578125 56.31476563 19.140625 55.80078125 C16.71935422 53.7639093 14.90470133 51.51815244 13 49 C13.65226562 48.46632813 14.30453125 47.93265625 14.9765625 47.3828125 C23.58824198 40.04129223 30.14619792 31.98668539 31.24902344 20.37890625 C31.41775601 17.43956491 31.53277091 14.5053074 31.625 11.5625 C31.74875 8.076875 31.8725 4.59125 32 1 C21.77 1 11.54 1 1 1 C1 10.24 1 19.48 1 29 C0.67 29 0.34 29 0 29 C0 19.43 0 9.86 0 0 Z " fill="#CDA159" transform="translate(247,386)"/>
<path d="M0 0 C31.02 0 62.04 0 94 0 C94 10.56 94 21.12 94 32 C86.41 32 78.82 32 71 32 C70.67 28.7 70.34 25.4 70 22 C67.90660592 18.65056947 66.28345769 17.18897179 63 15 C63.66 15 64.32 15 65 15 C65 10.38 65 5.76 65 1 C43.55 1 22.1 1 0 1 C0 0.67 0 0.34 0 0 Z " fill="#F1EBE9" transform="translate(82,376)"/>
<path d="M0 0 C1.20366211 0.00483398 1.20366211 0.00483398 2.43164062 0.00976562 C3.68170898 0.02233398 3.68170898 0.02233398 4.95703125 0.03515625 C6.22450195 0.04192383 6.22450195 0.04192383 7.51757812 0.04882812 C9.6015928 0.06060222 11.68557102 0.07853735 13.76953125 0.09765625 C13.27453125 1.31453125 12.77953125 2.53140625 12.26953125 3.78515625 C9.00554391 13.68591784 10.50860947 23.41194215 13.76953125 33.09765625 C10.76797752 33.23381544 7.77271025 33.33229605 4.76953125 33.41015625 C3.93035156 33.45205078 3.09117188 33.49394531 2.2265625 33.53710938 C-4.07557778 33.65924388 -8.45617024 32.32696943 -13.23046875 28.09765625 C-16.9678489 22.96004729 -18.04004896 18.37190289 -17.23046875 12.09765625 C-13.66521402 5.10427196 -8.10312006 -0.05746894 0 0 Z " fill="#EADDD8" transform="translate(45.23046875,375.90234375)"/>
<path d="M0 0 C0.92783798 -0.00945648 1.85567596 -0.01891296 2.81163025 -0.02865601 C4.31168358 -0.01954697 4.31168358 -0.01954697 5.84204102 -0.01025391 C7.38626488 -0.01455917 7.38626488 -0.01455917 8.96168518 -0.01895142 C11.1396642 -0.02099359 13.3176615 -0.01545307 15.49560547 -0.00292969 C18.82960076 0.01310498 22.16238069 -0.00276528 25.49633789 -0.02197266 C27.61157494 -0.01998993 29.72681124 -0.01614565 31.84204102 -0.01025391 C33.339058 -0.01936295 33.339058 -0.01936295 34.86631775 -0.02865601 C35.79730789 -0.01919952 36.72829803 -0.00974304 37.6875 0 C38.50451889 0.00238678 39.32153778 0.00477356 40.16331482 0.00723267 C43.00419241 0.48926879 44.36703255 1.3681964 46.40844727 3.38818359 C47.19000066 8.85905738 47.19000066 8.85905738 46.40844727 11.38818359 C43.45090801 14.61674591 41.14236844 15.65722009 36.88110352 15.90576172 C35.07790416 15.93206433 33.27426875 15.93528818 31.47094727 15.91943359 C30.51325439 15.9232605 29.55556152 15.9270874 28.56884766 15.93103027 C26.54824774 15.9337468 24.52761251 15.92640382 22.50708008 15.90966797 C19.41871551 15.88825479 16.3326772 15.9094786 13.24438477 15.93505859 C11.27823381 15.93241527 9.3120843 15.9272902 7.34594727 15.91943359 C5.96451538 15.93157898 5.96451538 15.93157898 4.55517578 15.94396973 C0.31349692 15.88209791 -1.99698035 15.75564929 -5.67553711 13.48217773 C-7.59155273 11.38818359 -7.59155273 11.38818359 -8.18530273 9.35302734 C-7.93120652 3.85819662 -7.93120652 3.85819662 -6.34727478 1.66635132 C-4.09389627 0.0258891 -2.77365012 0.00811064 0 0 Z " fill="#070707" transform="translate(240.591552734375,338.61181640625)"/>
<path d="M0 0 C0.89070694 0.31593864 0.89070694 0.31593864 1.79940796 0.63825989 C8.324775 2.79486161 14.19365694 3.46589591 21.0390625 3.51171875 C22.54936539 3.53864555 22.54936539 3.53864555 24.09017944 3.56611633 C27.26841186 3.6197813 30.44649796 3.65397353 33.625 3.6875 C35.79559309 3.72071179 37.96616698 3.75520495 40.13671875 3.79101562 C45.42437279 3.8754822 50.71198675 3.94250088 56 4 C56 8.62 56 13.24 56 18 C49.70121827 18.0990734 43.40289279 18.17156619 37.10351562 18.21972656 C34.96183366 18.23980888 32.8202063 18.26708037 30.67871094 18.30175781 C27.59556585 18.35042398 24.51314738 18.3730029 21.4296875 18.390625 C20.47633514 18.41127014 19.52298279 18.43191528 18.54074097 18.45318604 C12.83376819 18.45510081 9.49631175 17.87361001 5 14 C1.112779 9.37735881 0.40281771 5.84085674 0 0 Z " fill="#A24E3D" transform="translate(28,420)"/>
<path d="M0 0 C0.98367554 -0.00241196 1.96735107 -0.00482391 2.98083496 -0.00730896 C5.05871618 -0.0063303 7.1366234 0.00706764 9.21435547 0.03198242 C12.39510661 0.06628607 15.57307921 0.05264343 18.75390625 0.03320312 C20.77344933 0.04010168 22.79298523 0.04977414 24.8125 0.0625 C25.76362671 0.05754013 26.71475342 0.05258026 27.69470215 0.04747009 C34.25529451 0.16450657 34.25529451 0.16450657 37.50195312 2.48071289 C39.46284583 5.48034692 39.55218736 7.11213618 38.90625 10.62890625 C36.89383394 13.37801033 35.28875005 15.31563577 31.86547852 16.09133911 C29.36571101 16.27442263 26.91248102 16.29569197 24.40625 16.2578125 C23.03629883 16.26143044 23.03629883 16.26143044 21.63867188 16.26512146 C19.71219531 16.26414415 17.78569027 16.25077818 15.859375 16.22583008 C12.91569326 16.19151633 9.97501411 16.20517778 7.03125 16.22460938 C5.15623726 16.21771064 3.28123225 16.20803802 1.40625 16.1953125 C0.52904297 16.20027237 -0.34816406 16.20523224 -1.25195312 16.21034241 C-5.34198562 16.13177057 -7.5634573 15.95328287 -11.12109375 13.77709961 C-13.67712511 10.99361942 -14.17073753 9.40129537 -14.09375 5.62890625 C-10.8260881 -0.68272448 -6.37342022 -0.08884215 0 0 Z " fill="#080808" transform="translate(403.09375,410.37109375)"/>
<path d="M0 0 C0.96147949 -0.0038269 1.92295898 -0.00765381 2.91357422 -0.01159668 C4.9443466 -0.01431602 6.97515399 -0.00695329 9.00585938 0.00976562 C12.1140757 0.03117475 15.21998056 0.00996454 18.328125 -0.015625 C20.30208843 -0.01298173 22.27605043 -0.00785676 24.25 0 C25.17925293 -0.00809692 26.10850586 -0.01619385 27.06591797 -0.02453613 C33.47683056 0.06862151 33.47683056 0.06862151 36.7109375 2.37695312 C38.65362868 5.33660558 38.7036537 7.05932782 38.125 10.53125 C36.2579009 12.83400556 34.76852259 14.20948871 32.125 15.53125 C29.19398854 15.66707508 26.28794862 15.74401479 23.35546875 15.76953125 C22.48231522 15.777603 21.60916168 15.78567474 20.70954895 15.79399109 C18.8593647 15.80783364 17.00915488 15.81855503 15.15893555 15.82641602 C12.33397803 15.8436192 9.51019379 15.88750166 6.68554688 15.93164062 C4.88802944 15.94176847 3.09050205 15.95028429 1.29296875 15.95703125 C0.0286628 15.98329338 0.0286628 15.98329338 -1.26118469 16.01008606 C-5.26708765 15.99532588 -7.37698056 15.8307087 -10.8815918 13.72338867 C-13.64303639 10.68664514 -13.94757625 8.59552019 -13.875 4.53125 C-10.50670921 -0.77736605 -5.66795233 -0.04938696 0 0 Z " fill="#080808" transform="translate(336.875,410.46875)"/>
<path d="M0 0 C4.29 0 8.58 0 13 0 C13 14.52 13 29.04 13 44 C4 39 4 39 0 36 C-0.35569326 33.14470106 -0.46681139 30.68082619 -0.390625 27.83203125 C-0.38496521 27.03721848 -0.37930542 26.2424057 -0.37347412 25.42350769 C-0.35109004 22.88589134 -0.30089262 20.3496892 -0.25 17.8125 C-0.2299375 16.09181727 -0.21168629 14.37111241 -0.1953125 12.65039062 C-0.15121894 8.43304918 -0.08217965 4.21676431 0 0 Z " fill="#F7662E" transform="translate(125,406)"/>
<path d="M0 0 C7.59 0 15.18 0 23 0 C23 4.95 23 9.9 23 15 C15.41 15 7.82 15 0 15 C0 10.05 0 5.1 0 0 Z " fill="#853D2D" transform="translate(153,423)"/>
<path d="M0 0 C0.66 0 1.32 0 2 0 C3.17461555 3.10121711 4.33830456 6.20642241 5.5 9.3125 C5.83386719 10.19357422 6.16773438 11.07464844 6.51171875 11.98242188 C6.82753906 12.82998047 7.14335937 13.67753906 7.46875 14.55078125 C7.76201172 15.33106689 8.05527344 16.11135254 8.35742188 16.9152832 C9 19 9 19 9 22 C3.72 22 -1.56 22 -7 22 C-5.04910592 14.48905779 -2.76288395 7.25081726 0 0 Z " fill="#E8E3E1" transform="translate(328,222)"/>
</svg>
